<svg width="57" height="56" viewBox="0 0 57 56" fill="none" xmlns="http://www.w3.org/2000/svg">
<rect x="0.0604858" width="56" height="56" rx="28" fill="#24416C"/>
<path d="M36.505 27.311C35.7109 27.2617 34.9694 27.7138 34.6573 28.3801V28.2146C34.6573 27.1985 33.8734 26.3115 32.8587 26.2811C31.8078 26.2491 30.9455 27.0925 30.9455 28.1362V27.6833C30.9455 26.6672 30.1616 25.7802 29.1469 25.7498C28.096 25.7178 27.2337 27.3117 27.2337 28.3554V20.6894C27.2337 19.6733 26.4498 18.7864 25.4352 18.7559C24.3842 18.7239 23.5219 19.5673 23.5219 20.611V31.0946C22.6161 29.9856 21.5042 29.0507 20.2514 28.3554C19.9931 28.2117 19.7013 28.1362 19.4066 28.1362C18.6227 28.1362 17.8636 28.4323 17.6604 29.2307C17.4601 30.0161 17.9231 31.0482 18.6271 31.4474C21.4955 33.0732 22.5021 35.9 23.6605 38.8003C24.2179 40.1953 25.4352 42.8003 29.2605 43.2003H32.4605C37.6605 42.4003 38.1949 37.7837 38.1949 36.6819V36.2507V30.8188V29.2307C38.1949 28.2378 37.4473 27.3683 36.4558 27.3073L36.505 27.311Z" stroke="white" stroke-width="1.2"/>
<path d="M32.924 18.7581C33.0502 19.3111 33.117 19.886 33.117 20.4768C33.117 21.5277 32.908 22.5264 32.5248 23.4381" stroke="white" stroke-width="1.2"/>
<path d="M25.4419 12.8003C26.7092 12.8003 27.9053 13.108 28.9578 13.6509" stroke="white" stroke-width="1.2"/>
<path d="M17.959 18.7581C18.5643 16.1133 20.5356 13.9896 23.0905 13.168" stroke="white" stroke-width="1.2"/>
<path d="M30.6872 20.3397C30.6872 20.3847 30.6887 20.4312 30.6887 20.4762C30.6887 21.5155 30.3853 22.4852 29.8642 23.2996L29.7742 23.4375" stroke="white" stroke-width="1.2"/>
<path d="M21.1109 23.4378C20.5331 22.5958 20.1963 21.5754 20.1963 20.4765C20.1963 17.5776 22.5451 15.2303 25.4425 15.2303C26.9638 15.2303 28.3326 15.8763 29.2907 16.9099" stroke="white" stroke-width="1.2"/>
</svg>
