<svg width="56" height="56" viewBox="0 0 56 56" fill="none" xmlns="http://www.w3.org/2000/svg">
<rect width="56" height="56" rx="28" fill="#24416C"/>
<path d="M34.1343 40.5766C34.1343 41.4763 33.2515 42.3984 32.1663 42.629C31.081 42.8595 30.1982 42.3141 30.1982 41.4144C30.1982 40.5148 31.081 39.5926 32.1663 39.362C33.2515 39.1315 34.1343 39.6769 34.1343 40.5766V40.5766Z" stroke="white" stroke-width="1.2" stroke-miterlimit="10"/>
<path d="M42.0066 37.7647C42.0066 38.6643 41.1238 39.5865 40.0385 39.817C38.9533 40.0476 38.0705 39.5021 38.0705 38.6025C38.0705 37.7028 38.9533 36.7806 40.0385 36.5501C41.1238 36.3196 42.0066 36.865 42.0066 37.7647V37.7647Z" stroke="white" stroke-width="1.2" stroke-miterlimit="10"/>
<path d="M41.7847 37.0818V27.6761L32.379 30.4024V39.4332" stroke="white" stroke-width="1.2"/>
<path d="M41.7847 30.0275L32.379 33.1627" stroke="white" stroke-width="1.2" stroke-linejoin="round"/>
<path d="M30.0274 37.2693C29.1855 37.4968 28.3002 37.6184 27.3859 37.6184C21.7967 37.6184 17.2646 33.0863 17.2646 27.4971C17.2646 21.9079 21.7967 17.3758 27.3859 17.3758C32.6388 17.3758 36.958 21.379 37.4587 26.5005" stroke="white" stroke-width="1.2" stroke-miterlimit="10"/>
<path d="M27.3863 29.7462C28.6284 29.7462 29.6354 28.7392 29.6354 27.497C29.6354 26.2549 28.6284 25.2479 27.3863 25.2479C26.1441 25.2479 25.1371 26.2549 25.1371 27.497C25.1371 28.7392 26.1441 29.7462 27.3863 29.7462Z" stroke="white" stroke-width="1.2" stroke-miterlimit="10"/>
</svg>
