<svg width="349" height="88" viewBox="0 0 349 88" fill="none" xmlns="http://www.w3.org/2000/svg">
<path d="M179.313 38.2776C179.369 37.7841 179.402 37.2751 179.402 36.7551C179.402 36.4708 179.404 36.1403 179.371 35.7657C183.467 35.704 187.06 32.5398 187.06 28.9019C187.06 27.051 185.934 25.6541 185.298 24.819C185.44 24.7859 185.584 24.7506 185.73 24.7132C186.33 25.2729 188.032 27.2604 188.032 29.7701C188.032 34.1351 183.963 38.1873 179.313 38.2776ZM175.186 23.076C175.11 22.5891 174.938 22.1484 174.674 21.7694C174.689 21.3243 174.859 20.899 175.527 21.2494C175.166 21.646 175.445 22.3489 175.445 22.3489C175.445 22.3489 176.185 21.9809 176.031 21.4565C177.129 21.7385 176.339 23.3184 175.186 23.076ZM174.235 25.3169C174.089 24.6647 173.776 23.9949 173.38 23.4903C173.018 23.0319 172.42 22.4877 171.614 22.4877C171.246 22.4877 170.63 22.6728 170.237 22.8513C170.091 22.5648 169.805 21.8751 169.805 21.5644C169.805 21.2449 170.309 20.921 171.273 20.921C173.394 20.921 174.66 21.9478 174.66 23.6709C174.66 24.2769 174.436 24.8278 174.235 25.3169ZM179.681 54.6228C179.928 54.6228 180.047 54.6647 180.191 54.722C180.801 56.5024 183.155 59.8627 183.253 60.0059L183.274 60.0367L183.309 60.0279C183.886 59.9288 185.36 59.6908 186.593 59.6908H186.622C186.756 59.6908 186.908 59.6908 187.004 59.7921C187.085 59.8781 187.124 60.0279 187.124 60.2416C187.124 60.57 186.994 61.1318 186.838 61.372C186.406 60.8674 185.705 60.6405 184.583 60.6405C184.246 60.6405 183.847 60.7484 183.632 60.8101L183.543 60.83L183.443 60.8586L184.09 61.5527C185.089 62.6236 185.952 63.5468 185.952 64.1616C185.952 64.5318 185.615 65.0143 185.307 65.2281C185.239 64.1021 184.178 62.5949 183.144 61.751L183.056 61.6805L183.04 62.0771C183.025 62.3459 183.003 62.7492 183.003 63.181C183.003 65.325 182.799 65.6511 182.107 65.6511C182 65.6511 181.837 65.6181 181.737 65.5784C182.127 65.0606 182.281 64.3775 182.281 63.1788L182.275 62.6258L182.269 62.1807C182.269 61.6893 182.316 61.3257 182.353 61.0327L182.374 60.8674L182.265 60.852C181.94 60.8035 181.338 60.7154 180.877 60.7154C179.889 60.7154 179.219 60.8123 178.734 61.3015C178.413 61.0239 178.084 60.5457 178.084 60.2438C178.084 59.7965 178.343 59.7613 178.684 59.7613C178.857 59.7613 179.017 59.7877 179.239 59.8164C179.665 59.8847 180.304 59.986 181.621 59.986H181.704L181.677 59.9001C181.344 58.8755 180.427 57.386 178.958 55.4712C179.089 54.9578 179.219 54.6228 179.681 54.6228ZM166.992 59.9001L166.965 59.986H167.047C168.363 59.986 169.004 59.8847 169.429 59.8164C169.651 59.7877 169.812 59.7613 169.984 59.7613C170.323 59.7613 170.584 59.7965 170.584 60.2438C170.584 60.5457 170.256 61.0239 169.937 61.3015C169.45 60.8123 168.78 60.7154 167.793 60.7154C167.331 60.7154 166.727 60.8035 166.404 60.852L166.352 60.8586L166.295 60.8674L166.313 61.0327C166.352 61.3257 166.4 61.6893 166.4 62.1807L166.394 62.6258L166.387 63.1788C166.387 64.3775 166.542 65.0606 166.934 65.5784C166.831 65.6181 166.669 65.6511 166.562 65.6511C165.867 65.6511 165.666 65.325 165.666 63.181C165.666 62.7492 165.645 62.3459 165.631 62.0771L165.611 61.6783L165.524 61.751C164.492 62.5949 163.428 64.1021 163.364 65.2281C163.054 65.0143 162.717 64.5318 162.717 64.1616C162.717 63.5468 163.58 62.6236 164.579 61.5527L165.226 60.8586L165.037 60.8101C164.821 60.7484 164.423 60.6405 164.083 60.6405C162.963 60.6405 162.264 60.8674 161.831 61.372C161.675 61.1318 161.545 60.57 161.545 60.2416C161.545 60.0279 161.584 59.8781 161.664 59.7921C161.761 59.6908 161.913 59.6908 162.047 59.6908H162.075C163.309 59.6908 164.784 59.9288 165.36 60.0279L165.395 60.0367L165.415 60.0059C165.516 59.8627 167.867 56.5024 168.48 54.722C168.62 54.6647 168.741 54.6228 168.987 54.6228C169.45 54.6228 169.579 54.9578 169.713 55.4712C168.241 57.386 167.325 58.8755 166.992 59.9001ZM160.637 29.7701C160.637 27.2604 162.341 25.2729 162.941 24.7132C163.085 24.7506 163.228 24.7859 163.372 24.819C162.735 25.6541 161.609 27.051 161.609 28.9019C161.609 32.5773 165.271 35.7679 169.419 35.7679C169.392 36.083 169.378 36.4135 169.378 36.7551C169.378 37.2971 169.407 37.8017 169.456 38.2776C164.766 38.2468 160.637 34.166 160.637 29.7701ZM192.095 37.5108C194.2 41.0782 195.846 41.0187 198.333 41.0187C196.276 39.3287 194.915 37.1627 194.266 36.0566L190.422 29.4638C190.048 27.4278 189.066 25.5241 187.594 24.1072C188.09 23.9067 188.501 23.6952 188.747 23.4947C186.238 23.4947 183.751 22.1285 182.382 22.1285C181.502 22.1285 180.937 22.6926 180.937 23.4374C180.993 24.2681 181.79 25.112 183.264 25.112C183.597 25.112 184.024 25.0657 184.493 24.982C185.29 26.1741 185.934 27.2516 185.934 28.7896C185.934 31.6761 182.715 33.9258 179.465 33.9258C179.28 33.9258 179.106 33.917 178.923 33.9038C178.629 33.1877 177.649 31.9868 177.649 30.6206C177.649 28.3268 179.044 26.4539 179.044 24.1821C179.044 22.7697 178.403 21.895 178.156 21.5314C178.555 21.1348 178.991 20.6478 179.093 20.3129C178.861 20.4209 178.586 20.4341 178.185 20.4341C176.627 20.4341 175.357 20 174.12 20C173.413 20 173.223 20.2336 173.223 20.4561C173.223 20.5376 173.234 20.6214 173.254 20.661C172.991 20.5509 172.745 20.4781 172.451 20.4209C172.085 20.3459 171.692 20.3085 171.273 20.3085C169.768 20.3085 169.234 20.9849 169.234 21.5644C169.234 22.0536 169.594 22.9482 170.003 23.6313C170.589 23.314 171.293 23.1003 171.614 23.1003C172.414 23.1003 173.123 23.9155 173.499 24.8806C172.962 24.9512 172.86 24.9754 172.317 24.9754C170.852 24.9754 169.855 24.4135 169.649 24.4135C169.631 24.4135 169.592 24.4245 169.592 24.4598C169.592 24.6801 170.007 25.2618 170.825 25.5813C171.904 26.0044 173.519 26.1807 173.789 26.2292C173.789 26.2798 173.515 26.8263 173.209 26.9321C173.145 26.9541 173.094 26.9563 173.018 26.9387C171.892 26.7007 171.577 26.5993 170.149 26.0176C170.106 26 170.079 26.0286 170.079 26.0771C170.079 26.6831 171.542 28.0206 172.853 28.534C171.758 30.0323 170.391 31.5659 169.746 33.9038C169.563 33.917 169.386 33.9258 169.203 33.9258C165.954 33.9258 162.735 31.6761 162.735 28.7896C162.735 27.2516 163.378 26.1741 164.176 24.982C164.645 25.0657 165.07 25.112 165.405 25.112C166.879 25.112 167.676 24.2681 167.734 23.4374C167.734 22.6926 167.168 22.1285 166.287 22.1285C164.918 22.1285 162.433 23.4947 159.919 23.4947C160.168 23.6952 160.579 23.9067 161.072 24.1072C159.603 25.5241 158.62 27.4278 158.246 29.4638L154.403 36.0566C153.755 37.1627 152.391 39.3287 150.333 41.0187C152.82 41.0187 154.469 41.0782 156.573 37.5108L158.544 34.1307C158.69 34.5692 158.869 34.9967 159.081 35.4154L155.161 42.1381C154.51 43.253 153.157 45.3992 151.092 47.1003C153.579 47.1003 155.227 47.162 157.332 43.5968L160.704 37.8061C160.957 38.0947 161.222 38.3768 161.502 38.6456L156.742 46.816C156.088 47.9332 154.744 50.0749 152.674 51.7738C155.161 51.7738 156.81 51.8377 158.912 48.2703L163.553 40.3048C163.859 40.5119 164.172 40.7125 164.497 40.9019L158.83 50.6214C158.176 51.7385 156.832 53.8737 154.763 55.5791C157.249 55.5791 158.898 55.6408 161.002 52.0757L166.835 42.0654C167.181 42.2064 167.53 42.343 167.886 42.4642L161.294 53.7745C160.651 54.8762 159.276 57.051 157.229 58.7323C159.714 58.7323 161.364 58.794 163.467 55.2288L170.492 43.1759C170.564 43.1891 170.634 43.2001 170.704 43.2156C170.895 43.8678 171.028 44.4759 171.028 45.0819C171.028 48.8696 168.71 52.2145 165.927 54.7969C166.106 54.8806 166.416 54.9093 166.702 54.9093C167.277 54.9093 167.647 54.8762 167.908 54.8278C167.263 56.3988 165.878 58.4282 165.179 59.477C164.268 59.3008 162.943 59.1642 162.075 59.1642C161.167 59.1642 161.064 59.7326 161.064 60.2416C161.064 61.1252 161.451 61.8281 161.899 62.2203C162.067 61.7686 162.406 61.1649 164.083 61.1649C164.116 61.1649 164.174 61.1693 164.252 61.1759C163.763 61.7598 162.227 63.0907 162.227 64.1616C162.227 64.8711 162.953 65.9354 163.909 65.9354C163.853 65.7062 163.859 65.4969 163.859 65.3382C163.859 64.4701 164.577 63.4543 165.183 62.7448C165.165 62.9563 165.175 62.9343 165.175 63.181C165.175 65.2325 165.347 66.1755 166.562 66.1755C167.158 66.1755 167.569 65.8252 167.711 65.7194C166.922 64.9416 166.881 64.329 166.881 63.1788C166.883 62.8792 166.885 62.5861 166.889 62.1829C166.891 61.9185 166.887 61.5703 166.848 61.3191C167.282 61.2552 167.458 61.2552 167.793 61.2552C167.793 61.2552 169.518 61.1076 169.935 62.0705C170.404 61.61 171.084 60.96 171.084 60.2438C171.084 59.7701 170.874 59.2347 169.984 59.2347C169.647 59.2347 168.589 59.455 167.703 59.455C167.941 58.8887 169 57.2273 169.918 56.022C170.058 56.4892 170.274 56.9938 170.755 57.408C170.823 56.6324 171.246 54.1799 172.377 52.7455C172.508 53.715 172.685 54.7088 172.685 56.8043C172.685 61.903 171.542 65.6688 169.115 66.3871C169.431 66.9754 170.099 67.5064 170.792 67.5064C171.68 67.5064 172.163 66.4289 172.656 65.4131C172.913 66.1623 173.622 68 174.333 68C175.044 68 175.756 66.1623 176.013 65.4131C176.504 66.4289 176.989 67.5064 177.877 67.5064C178.569 67.5064 179.237 66.9754 179.554 66.3871C177.126 65.6688 175.982 61.903 175.982 56.8043C175.982 54.7088 176.158 53.715 176.29 52.7455C177.422 54.1799 177.848 56.6324 177.912 57.408C178.395 56.9938 178.612 56.4892 178.75 56.022C179.667 57.2273 180.727 58.8887 180.966 59.455C180.08 59.455 179.019 59.2347 178.684 59.2347C177.797 59.2347 177.587 59.7701 177.587 60.2438C177.587 60.96 178.267 61.61 178.736 62.0705C179.149 61.1076 180.877 61.2552 180.877 61.2552C181.21 61.2552 181.387 61.2552 181.823 61.3191C181.782 61.5703 181.78 61.9185 181.782 62.1829C181.786 62.5861 181.786 62.8792 181.788 63.1788C181.788 64.329 181.747 64.9416 180.958 65.7194C181.099 65.8252 181.511 66.1755 182.107 66.1755C183.321 66.1755 183.496 65.2325 183.496 63.181C183.496 62.9343 183.502 62.9563 183.486 62.7448C184.092 63.4543 184.809 64.4701 184.809 65.3382C184.809 65.4969 184.818 65.7062 184.758 65.9354C185.716 65.9354 186.443 64.8711 186.443 64.1616C186.443 63.0907 184.908 61.7598 184.415 61.1759C184.495 61.1693 184.552 61.1649 184.583 61.1649C186.262 61.1649 186.602 61.7686 186.77 62.2203C187.218 61.8281 187.605 61.1252 187.605 60.2416C187.605 59.7326 187.502 59.1642 186.593 59.1642C185.726 59.1642 184.402 59.3008 183.49 59.477C182.789 58.4282 181.408 56.3988 180.76 54.8278C181.021 54.8762 181.393 54.9093 181.967 54.9093C182.255 54.9093 182.563 54.8806 182.742 54.7969C179.959 52.2145 177.64 48.8696 177.64 45.0819C177.64 44.4759 177.774 43.8678 177.965 43.2156C178.033 43.2001 178.107 43.1891 178.177 43.1759L185.202 55.2288C187.304 58.794 188.955 58.7323 191.44 58.7323C189.393 57.051 188.018 54.8762 187.374 53.7745L180.781 42.4642C181.138 42.343 181.49 42.2064 181.835 42.0654L187.666 52.0757C189.771 55.6408 191.419 55.5791 193.906 55.5791C191.836 53.8737 190.492 51.7385 189.839 50.6214L184.174 40.9019C184.495 40.7125 184.809 40.5119 185.113 40.3048L189.756 48.2703C191.861 51.8377 193.507 51.7738 195.994 51.7738C193.925 50.0749 192.583 47.9332 191.927 46.816L187.167 38.6456C187.446 38.3768 187.713 38.0947 187.962 37.8061L191.339 43.5968C193.442 47.162 195.09 47.1003 197.577 47.1003C195.509 45.3992 194.161 43.253 193.507 42.1381L189.59 35.4154C189.8 34.9967 189.978 34.5692 190.126 34.1307L192.095 37.5108Z" fill="#3D567D"/>
<rect x="0.5" y="0.5" width="347.667" height="87" stroke="#CED5DE"/>
</svg>
