<svg width="32" height="32" viewBox="0 0 32 32" fill="none" xmlns="http://www.w3.org/2000/svg">
<path d="M6.9298 5.24023L6 5.24025L6 29.9993H27V10.726L21.1621 5.24023H19.3186" stroke="#1A1A1A" stroke-width="1.5" stroke-linecap="square"/>
<path d="M20.0957 8.34766V11.7311H23.6963" stroke="#1A1A1A" stroke-width="1.5" stroke-linecap="square"/>
<path d="M14.1592 13.7808V5.32869C14.1592 4.71595 13.6034 4.21921 12.9178 4.21921C12.2321 4.21921 11.6763 4.71595 11.6763 5.32869V13.7808C11.6763 15.0063 12.7879 16 14.1595 16C15.5308 16 16.6427 15.0065 16.6427 13.7808V5.32869C16.6427 3.4902 14.9753 2 12.918 2C10.8608 2 9.19336 3.4902 9.19336 5.32869" stroke="#1A1A1A" stroke-width="1.5" stroke-linecap="round"/>
<path d="M10.1367 22.8047H22.8596" stroke="#1A1A1A" stroke-width="1.5" stroke-linecap="square"/>
<path d="M10.1367 26.0664H22.8596" stroke="#1A1A1A" stroke-width="1.5" stroke-linecap="square"/>
</svg>
