<svg width="32" height="32" viewBox="0 0 32 32" fill="none" xmlns="http://www.w3.org/2000/svg">
<path d="M26.2265 6.94496L25.6722 7.45017L25.6724 7.45043L26.2265 6.94496ZM21.9463 5V5.75V5ZM17.666 6.94496L18.2202 7.4503L18.2204 7.45017L17.666 6.94496ZM16.4997 8.22404L15.9455 8.72938L16.4997 9.33715L17.0539 8.72938L16.4997 8.22404ZM15.3334 6.94496L14.7792 7.4503L15.3334 6.94496ZM6.77293 16.3329L7.32712 15.8276H7.32712L6.77293 16.3329ZM7.93926 17.612L7.38507 18.1174H7.38507L7.93926 17.612ZM16.4997 27L15.9455 27.5053L16.4997 28.1131L17.0539 27.5053L16.4997 27ZM25.0602 17.612L25.6143 18.1174L25.0602 17.612ZM26.2265 16.3329L25.6724 15.8275L25.6723 15.8276L26.2265 16.3329ZM26.7808 6.43975C26.1527 5.75064 25.4032 5.1999 24.5731 4.82268L23.9525 6.1883C24.5912 6.47853 25.1763 6.90606 25.6722 7.45017L26.7808 6.43975ZM24.5731 4.82268C23.7427 4.44535 22.8499 4.25 21.9463 4.25V5.75C22.6326 5.75 23.3141 5.89818 23.9525 6.1883L24.5731 4.82268ZM21.9463 4.25C21.0427 4.25 20.1498 4.44535 19.3194 4.82268L19.94 6.1883C20.5784 5.89819 21.2599 5.75 21.9463 5.75V4.25ZM19.3194 4.82268C18.4893 5.1999 17.7398 5.75064 17.1117 6.43975L18.2204 7.45017C18.7163 6.90606 19.3013 6.47853 19.94 6.1883L19.3194 4.82268ZM17.1118 6.43962L15.9455 7.7187L17.0539 8.72938L18.2202 7.4503L17.1118 6.43962ZM17.0539 7.7187L15.8876 6.43962L14.7792 7.4503L15.9455 8.72938L17.0539 7.7187ZM15.8876 6.43962C14.6182 5.04755 12.881 4.25065 11.0531 4.25065V5.75065C12.4361 5.75065 13.7782 6.35252 14.7792 7.4503L15.8876 6.43962ZM11.0531 4.25065C9.22534 4.25065 7.48809 5.04755 6.21873 6.43962L7.32712 7.4503C8.32813 6.35252 9.67017 5.75065 11.0531 5.75065V4.25065ZM6.21873 6.43962C4.95148 7.82938 4.25 9.70064 4.25 11.6389H5.75C5.75 10.0561 6.324 8.55039 7.32712 7.4503L6.21873 6.43962ZM4.25 11.6389C4.25 13.5773 4.95148 15.4485 6.21873 16.8383L7.32712 15.8276C6.324 14.7275 5.75 13.2218 5.75 11.6389H4.25ZM6.21873 16.8383L7.38507 18.1174L8.49345 17.1067L7.32712 15.8276L6.21873 16.8383ZM7.38507 18.1174L15.9455 27.5053L17.0539 26.4947L8.49345 17.1067L7.38507 18.1174ZM17.0539 27.5053L25.6143 18.1174L24.506 17.1067L15.9455 26.4947L17.0539 27.5053ZM25.6143 18.1174L26.7807 16.8383L25.6723 15.8276L24.506 17.1067L25.6143 18.1174ZM26.7806 16.8384C27.4088 16.1498 27.9039 15.3358 28.2407 14.4445L26.8375 13.9144C26.5656 14.6339 26.1687 15.2835 25.6724 15.8275L26.7806 16.8384ZM28.2407 14.4445C28.5774 13.5533 28.75 12.6002 28.75 11.6389H27.25C27.25 12.4214 27.1094 13.1947 26.8375 13.9144L28.2407 14.4445ZM28.75 11.6389C28.75 10.6777 28.5774 9.72458 28.2407 8.83338L26.8375 9.36354C27.1094 10.0832 27.25 10.8565 27.25 11.6389H28.75ZM28.2407 8.83338C27.9039 7.94213 27.4088 7.12814 26.7806 6.43949L25.6724 7.45043C26.1687 7.99442 26.5656 8.64397 26.8375 9.36354L28.2407 8.83338Z" fill="white"/>
</svg>
