<svg width="24" height="24" viewBox="0 0 24 24" fill="none" xmlns="http://www.w3.org/2000/svg">
<path d="M17.3333 9.33333C18.8061 9.33333 20 8.13943 20 6.66667C20 5.19391 18.8061 4 17.3333 4C15.8606 4 14.6667 5.19391 14.6667 6.66667C14.6667 8.13943 15.8606 9.33333 17.3333 9.33333Z"  stroke-width="1.5" stroke-linecap="round" stroke-linejoin="round"/>
<path d="M17.3333 20C18.8061 20 20 18.8061 20 17.3333C20 15.8606 18.8061 14.6667 17.3333 14.6667C15.8606 14.6667 14.6667 15.8606 14.6667 17.3333C14.6667 18.8061 15.8606 20 17.3333 20Z"  stroke-width="1.5" stroke-linecap="round" stroke-linejoin="round"/>
<path d="M6.66667 14.6667C8.13943 14.6667 9.33333 13.4728 9.33333 12C9.33333 10.5273 8.13943 9.33334 6.66667 9.33334C5.19391 9.33334 4 10.5273 4 12C4 13.4728 5.19391 14.6667 6.66667 14.6667Z"  stroke-width="1.5" stroke-linecap="round" stroke-linejoin="round"/>
<path d="M9.05065 13.1947L14.9493 16.1387"  stroke-width="1.5" stroke-linecap="round" stroke-linejoin="round"/>
<path d="M14.9493 7.86133L9.05065 10.8053"  stroke-width="1.5" stroke-linecap="round" stroke-linejoin="round"/>
</svg>
