<svg width="96" height="96" viewBox="0 0 96 96" fill="none" xmlns="http://www.w3.org/2000/svg">
<path class="bg" d="M44.913 13.2679C46.3803 10.295 50.6197 10.295 52.0869 13.2679L59.9128 29.1249C60.4954 30.3054 61.6217 31.1237 62.9245 31.313L80.4237 33.8558C83.7046 34.3326 85.0146 38.3644 82.6405 40.6786L69.978 53.0215C69.0353 53.9404 68.6051 55.2644 68.8276 56.562L71.8169 73.9905C72.3773 77.2581 68.9476 79.7499 66.0131 78.2072L50.3613 69.9786C49.196 69.3659 47.8039 69.3659 46.6386 69.9786L30.9869 78.2072C28.0524 79.7499 24.6226 77.2581 25.1831 73.9905L28.1723 56.562C28.3948 55.2644 27.9647 53.9404 27.0219 53.0215L14.3594 40.6786C11.9853 38.3644 13.2954 34.3326 16.5762 33.8558L34.0754 31.313C35.3783 31.1237 36.5045 30.3054 37.0872 29.1249L44.913 13.2679Z"/>
<circle cx="39.5" cy="43" r="2"/>
<path class="face" d="M39 50H57V50.1208C57 54.237 54.0946 57.7811 50.0583 58.5883C48.6995 58.8601 47.3005 58.8601 45.9417 58.5883C41.9054 57.7811 39 54.237 39 50.1208V50Z"/>
<circle cx="57.5" cy="43" r="2"/>
</svg>
