<svg width="25" height="24" viewBox="0 0 25 24" fill="none" xmlns="http://www.w3.org/2000/svg">
<path d="M12.0492 3.10159C12.1313 2.93514 12.3687 2.93514 12.4508 3.10159L14.5837 7.42317C14.8348 7.93198 15.3202 8.28465 15.8817 8.36624L20.6508 9.05924C20.8345 9.08593 20.9079 9.31168 20.7749 9.44124L17.324 12.8051C16.9177 13.2012 16.7322 13.7718 16.8282 14.331L17.6428 19.0809C17.6742 19.2639 17.4822 19.4034 17.3179 19.317L13.0522 17.0744C12.55 16.8104 11.95 16.8104 11.4478 17.0744L7.18212 19.317L7.53113 19.9809L7.18212 19.317C7.01782 19.4034 6.82579 19.2639 6.85717 19.0809L7.67184 14.331C7.76776 13.7718 7.58235 13.2012 7.17603 12.8051L3.72505 9.44124C3.59213 9.31167 3.66548 9.08593 3.84917 9.05924L8.61831 8.36624C9.17982 8.28465 9.66523 7.93198 9.91634 7.42317L12.0492 3.10159Z" stroke="white" stroke-width="1.5"/>
</svg>
