<svg width="96" height="96" viewBox="0 0 96 96" fill="none" xmlns="http://www.w3.org/2000/svg">

<path class="bg" d="M44.913 13.2679C46.3803 10.295 50.6197 10.295 52.0869 13.2679L59.9128 29.1249C60.4954 30.3054 61.6217 31.1237 62.9245 31.313L80.4237 33.8558C83.7046 34.3326 85.0146 38.3644 82.6406 40.6786L69.978 53.0215C69.0353 53.9404 68.6051 55.2644 68.8277 56.562L71.8169 73.9905C72.3773 77.2581 68.9476 79.7499 66.0131 78.2072L50.3614 69.9786C49.1961 69.3659 47.8039 69.3659 46.6386 69.9786L30.9869 78.2072C28.0524 79.7499 24.6227 77.2581 25.1831 73.9905L28.1723 56.562C28.3949 55.2644 27.9647 53.9404 27.0219 53.0215L14.3594 40.6786C11.9853 38.3644 13.2954 34.3326 16.5763 33.8558L34.0754 31.313C35.3783 31.1237 36.5045 30.3054 37.0872 29.1249L44.913 13.2679Z"/>
<circle cx="39.5" cy="43" r="2" />
<circle cx="57.5" cy="43" r="2" />
<path class="face" d="M41.5 54H48.5H54.5" stroke-width="2" stroke-linecap="round"/>
</svg>
