<svg width="28" height="27" viewBox="0 0 28 27" fill="none" xmlns="http://www.w3.org/2000/svg">
<path
      d="M12.7296 1.57406C13.2493 0.521129 14.7507 0.521132 15.2704 1.57406L18.3727 7.85999C18.579 8.27811 18.9779 8.56791 19.4393 8.63496L26.3763 9.64296C27.5382 9.8118 28.0022 11.2398 27.1614 12.0594L22.1418 16.9523C21.8079 17.2777 21.6555 17.7466 21.7344 18.2062L22.9193 25.1151C23.1178 26.2724 21.9031 27.1549 20.8638 26.6085L14.6592 23.3466C14.2465 23.1296 13.7535 23.1296 13.3408 23.3466L7.13619 26.6085C6.09688 27.1549 4.88219 26.2724 5.08068 25.1151L6.26565 18.2062C6.34447 17.7466 6.19211 17.2777 5.85822 16.9523L0.838605 12.0594C-0.00221074 11.2398 0.461764 9.8118 1.62374 9.64296L8.56067 8.63496C9.0221 8.56791 9.42098 8.27811 9.62733 7.85999L12.7296 1.57406Z"
/>
</svg>
