<svg width="24" height="24" viewBox="0 0 24 24" fill="none" xmlns="http://www.w3.org/2000/svg">
<path d="M18.3247 6.7743C18.3247 7.00318 18.2569 7.22694 18.1298 7.41726C18.0026 7.60759 17.8219 7.75595 17.6105 7.84356C17.399 7.93117 17.1663 7.9541 16.9418 7.90946C16.7173 7.86482 16.5111 7.75461 16.3493 7.59276C16.1875 7.43092 16.0772 7.22471 16.0326 7.00023C15.988 6.77574 16.0109 6.54305 16.0985 6.3316C16.1861 6.12015 16.3345 5.93943 16.5248 5.8123C16.7151 5.68517 16.9389 5.61734 17.1678 5.61738C17.4746 5.61745 17.7688 5.73936 17.9857 5.9563C18.2027 6.17325 18.3246 6.46748 18.3247 6.7743ZM22 11.9991L21.9998 12.0137L21.934 16.2092C21.917 17.7219 21.3084 19.1679 20.2387 20.2377C19.169 21.3074 17.723 21.9159 16.2102 21.933L12 21.9992L11.9854 21.9989L7.78995 21.9334C6.27718 21.9163 4.83117 21.3078 3.76138 20.238C2.69159 19.1683 2.08301 17.7223 2.06586 16.2095L2 11.9991L2.00029 11.9845L2.06581 7.78887C2.08301 6.2761 2.69161 4.83015 3.76139 3.76041C4.83117 2.69068 6.27714 2.08215 7.7899 2.06502L12 1.99902L12.0146 1.99931L16.21 2.06483C17.7228 2.08196 19.1687 2.6905 20.2385 3.76024C21.3082 4.82998 21.9167 6.27594 21.9339 7.78868L22 11.9991ZM20.1375 11.9991L20.0721 7.81811C20.0605 6.78971 19.6468 5.80671 18.9196 5.07947C18.1923 4.35223 17.2093 3.93853 16.181 3.92689L12 3.86161L7.81905 3.92689C6.79065 3.93855 5.80767 4.35226 5.08043 5.07949C4.35319 5.80672 3.93948 6.78971 3.92781 7.81811L3.86252 11.9991L3.92781 16.1801C3.93944 17.2085 4.35314 18.1915 5.08039 18.9187C5.80763 19.646 6.79064 20.0597 7.81905 20.0713L12 20.1366L16.181 20.0713C17.2094 20.0597 18.1924 19.646 18.9196 18.9188C19.6468 18.1915 20.0605 17.2085 20.0721 16.1801L20.1375 11.9991ZM17.1352 11.9991C17.1352 13.0148 16.8341 14.0076 16.2698 14.8521C15.7055 15.6966 14.9035 16.3548 13.9651 16.7435C13.0268 17.1322 11.9942 17.2339 10.9981 17.0357C10.0019 16.8376 9.08692 16.3485 8.36874 15.6303C7.65056 14.9121 7.16147 13.9971 6.96333 13.0009C6.76519 12.0048 6.8669 10.9722 7.25558 10.0339C7.64427 9.0955 8.30248 8.29348 9.14698 7.72921C9.99147 7.16494 10.9843 6.86376 12 6.86377C13.3615 6.86531 14.6668 7.40685 15.6295 8.36958C16.5922 9.3323 17.1337 10.6376 17.1352 11.9991ZM15.273 11.9991C15.273 11.3517 15.081 10.7189 14.7214 10.1807C14.3617 9.64242 13.8506 9.2229 13.2525 8.97517C12.6544 8.72744 11.9963 8.66262 11.3614 8.78892C10.7265 8.91522 10.1433 9.22695 9.68554 9.6847C9.2278 10.1425 8.91608 10.7257 8.78979 11.3606C8.6635 11.9955 8.72833 12.6536 8.97606 13.2517C9.2238 13.8498 9.64332 14.3609 10.1816 14.7206C10.7198 15.0802 11.3527 15.2722 12 15.2722C12.8677 15.2712 13.6997 14.926 14.3132 14.3124C14.9268 13.6988 15.272 12.8668 15.273 11.9991H15.273Z" fill="#1A1A1A"/>
</svg>
