<svg width="24" height="24" viewBox="0 0 24 24" fill="none" xmlns="http://www.w3.org/2000/svg">
  <path d="M20.8532 10.2855L19.3398 10.9541L17.2302 11.886L12.3759 14.0304C12.1361 14.1365 11.865 14.1365 11.6253 14.0304L6.62484 11.8216L3.14731 10.2855C3.05803 10.2463 3 10.1561 3 10.0553C3 9.9545 3.05803 9.86363 3.14731 9.82449L11.6246 6.07959C11.8644 5.97347 12.1354 5.97347 12.3752 6.07959L20.8532 9.82516C21.0489 9.91138 21.0489 10.1999 20.8532 10.2855Z" stroke-linejoin="round"/>
  <path d="M19.6894 13.7712V11" stroke-linejoin="round"/>
  <path d="M19.7503 16C20.4406 16 21 15.4401 21 14.75C21 14.0602 20.4416 13.5 19.7503 13.5C19.0597 13.5 18.5 14.0596 18.5 14.75C18.5 15.4407 19.0606 16 19.7503 16Z" stroke-linejoin="round"/>
  <path d="M17.144 11.9238V16.1596C14.0963 18.613 9.9039 18.613 6.8562 16.1596V11.9238" stroke-linejoin="round"/>
</svg>
