<svg width="24" height="24" viewBox="0 0 24 24" fill="none" xmlns="http://www.w3.org/2000/svg">
<path d="M4 18L6.53746 10.72C6.71376 10.213 7.1797 9.875 7.7023 9.875H20.2605C20.4998 9.875 20.7265 9.99525 20.865 10.2C21.0035 10.4048 21.0382 10.6648 20.9563 10.8988L18.7777 17.155C18.6014 17.662 18.1355 18 17.6097 18H4ZM4 18V6.3C4 5.58175 4.56353 5 5.25929 5H7.57008C7.90379 5 8.22491 5.1365 8.46102 5.38025L9.92809 6.89475C10.1642 7.1385 10.4853 7.275 10.819 7.275H17.2414C17.9277 7.275 18.4818 7.847 18.4818 8.5555V9.875" stroke="#737373" stroke-linecap="round" stroke-linejoin="round"/>
</svg>
