<svg width="24" height="24" viewBox="0 0 24 24" fill="none" xmlns="http://www.w3.org/2000/svg">
<path d="M3.20541 7.98552H7.07307V19.6245H3.20541V7.98552ZM5.16513 2.375C3.84139 2.375 2.97656 3.24404 2.97656 4.38469C2.97656 5.50188 3.81609 6.39619 5.11452 6.39619H5.13918C6.48823 6.39619 7.32835 5.50184 7.32835 4.38469C7.30304 3.24404 6.48827 2.375 5.16513 2.375ZM16.5693 7.7121C14.5162 7.7121 13.5965 8.84132 13.0834 9.63324V7.98552H9.21459C9.26581 9.07739 9.21459 19.6245 9.21459 19.6245H13.0834V13.1245C13.0834 12.7764 13.1087 12.4295 13.2105 12.1801C13.4906 11.4851 14.1272 10.7655 15.1949 10.7655C16.5958 10.7655 17.1552 11.8333 17.1552 13.3972V19.6245H21.0234V12.9505C21.0234 9.37551 19.1155 7.7121 16.5693 7.7121Z" fill="#1A1A1A"/>
</svg>
