<svg width="24" height="24" viewBox="0 0 24 24" fill="none" xmlns="http://www.w3.org/2000/svg">
<path d="M19.1157 11.2849C19.7759 10.2368 19.4218 8.87578 18.3249 8.245C17.228 7.61423 15.8036 7.95256 15.1435 9.00069C14.4834 10.0488 14.8375 11.4098 15.9344 12.0406C17.0313 12.6714 18.4556 12.3331 19.1157 11.2849Z" stroke-width="1.12176" stroke-linecap="round" stroke-linejoin="round"/>
<path d="M14.4483 14.1048C14.4483 14.1048 18.0975 14.0333 18.9123 14.2346C20.1768 14.5472 20.9975 15.4782 20.9459 16.4885V19.1048" stroke-width="1.12176" stroke-linecap="round" stroke-linejoin="round"/>
<path d="M10.8958 7.4459C10.9369 6.17348 9.89077 5.11011 8.55915 5.07079C7.22753 5.03147 6.11468 6.03109 6.07353 7.30351C6.03238 8.57592 7.07851 9.6393 8.41013 9.67862C9.74175 9.71794 10.8546 8.71832 10.8958 7.4459Z" stroke-width="1.12176" stroke-linecap="round" stroke-linejoin="round"/>
<path d="M14.02 19.0008V14.5367C14.0621 13.3904 13.2242 12.341 11.9439 11.9931C11.1179 11.7687 9.99836 11.6016 8.4987 11.6055C7.00082 11.6095 5.88364 11.7823 5.05939 12.0107C3.78032 12.3654 2.95014 13.4216 3.00233 14.5678V19.0008" stroke-width="1.12176" stroke-linecap="round" stroke-linejoin="round"/>
</svg>
