<svg width="56" height="56" viewBox="0 0 56 56" fill="none" xmlns="http://www.w3.org/2000/svg">
<rect class="background" width="56" height="56" rx="28"/>
<path class="fill" d="M12.28 33L15.752 22.92H17.117L20.589 33H19.518L16.221 23.494H16.627L13.351 33H12.28ZM13.827 30.557V29.591H19.035V30.557H13.827ZM21.993 33V22.92H23.022V32.013H27.81V33H21.993ZM29.1434 33V22.92H30.1724V32.013H34.9604V33H29.1434ZM36.1538 33V22.92H42.4538V23.907H37.1828V27.393H41.6138V28.38H37.1828V32.013H42.4538V33H36.1538Z"/>
<rect class="border" x="0.5" y="0.5" width="55" height="55" rx="27.5"/>
</svg>
