<svg width="104" height="104" viewBox="0 0 104 104" fill="none" xmlns="http://www.w3.org/2000/svg">
<rect class="background" width="104" height="104" rx="52"/>
<path class="fill" d="M25.773 61L31.725 43.72H34.065L40.017 61H38.181L32.529 44.704H33.225L27.609 61H25.773ZM28.425 56.812V55.156H37.353V56.812H28.425ZM42.4239 61V43.72H44.1879V59.308H52.3959V61H42.4239ZM54.6817 61V43.72H56.4457V59.308H64.6537V61H54.6817ZM66.6995 61V43.72H77.4995V45.412H68.4635V51.388H76.0595V53.08H68.4635V59.308H77.4995V61H66.6995Z"/>
<rect class="border" x="0.75" y="0.75" width="102.5" height="102.5" rx="51.25" stroke-width="1.5"/>
</svg>
