<svg width="104" height="104" viewBox="0 0 104 104" fill="none" xmlns="http://www.w3.org/2000/svg">
<rect class="background" width="104" height="104" rx="52"/>
<path d="M60.2395 68.4588C60.2395 69.6066 59.1132 70.7831 57.7286 71.0773C56.3441 71.3714 55.2178 70.6755 55.2178 69.5277C55.2178 68.3799 56.3441 67.2033 57.7286 66.9092C59.1132 66.6151 60.2395 67.311 60.2395 68.4588V68.4588Z" stroke-width="1.5" stroke-miterlimit="10"/>
<path d="M70.2832 64.8713C70.2832 66.0191 69.1569 67.1956 67.7723 67.4897C66.3878 67.7839 65.2615 67.088 65.2615 65.9402C65.2615 64.7923 66.3878 63.6158 67.7723 63.3217C69.1569 63.0276 70.2832 63.7234 70.2832 64.8713V64.8713Z" stroke-width="1.5" stroke-miterlimit="10"/>
<path d="M70 64V52L58 55.4783V67" stroke-width="1.5"/>
<path d="M70 55L58 59" stroke-width="1.5" stroke-linejoin="round"/>
<path d="M54.9999 64.2392C53.9258 64.5295 52.7963 64.6846 51.6298 64.6846C44.4989 64.6846 38.7167 58.9024 38.7167 51.7716C38.7167 44.6407 44.4989 38.8585 51.6298 38.8585C58.3316 38.8585 63.8422 43.9659 64.481 50.5001" stroke-width="1.5" stroke-miterlimit="10"/>
<path d="M51.6301 54.641C53.2149 54.641 54.4997 53.3562 54.4997 51.7714C54.4997 50.1866 53.2149 48.9019 51.6301 48.9019C50.0453 48.9019 48.7606 50.1866 48.7606 51.7714C48.7606 53.3562 50.0453 54.641 51.6301 54.641Z" stroke-width="1.5" stroke-miterlimit="10"/>
<rect class="border" x="0.75" y="0.75" width="102.5" height="102.5" rx="51.25" stroke-width="1.5"/>
</svg>