<svg width="105" height="104" viewBox="0 0 105 104" fill="none" xmlns="http://www.w3.org/2000/svg">
<rect class="background" x="0.810486" y="0.75" width="102.5" height="102.5" rx="51.25" stroke-width="1.5"/>
<path d="M62.6161 51.1388C61.6236 51.0771 60.6966 51.6423 60.3065 52.4751V52.2683C60.3065 50.9981 59.3266 49.8895 58.0583 49.8514C56.7446 49.8114 55.6667 50.8657 55.6667 52.1703V51.6042C55.6667 50.334 54.6869 49.2253 53.4186 49.1872C52.1048 49.1473 51.027 51.1397 51.027 52.4443V42.8618C51.027 41.5917 50.0472 40.483 48.7788 40.4449C47.4651 40.405 46.3873 41.4592 46.3873 42.7638V55.8683C45.255 54.482 43.8651 53.3135 42.2992 52.4443C41.9762 52.2647 41.6115 52.1703 41.2431 52.1703C40.2633 52.1703 39.3144 52.5405 39.0604 53.5385C38.81 54.5201 39.3887 55.8102 40.2687 56.3092C43.8542 58.3415 45.1125 61.875 46.5605 65.5004C47.2573 67.2442 48.7788 70.5004 53.5605 71.0004H57.5605C64.0605 70.0004 64.7285 64.2296 64.7285 62.8524V62.3135V55.5235V53.5385C64.7285 52.2973 63.794 51.2104 62.5547 51.1342L62.6161 51.1388Z" stroke-width="1.5"/>
<path d="M58.1398 40.4477C58.2977 41.139 58.3812 41.8576 58.3812 42.5961C58.3812 43.9098 58.1199 45.1582 57.6408 46.2977" stroke-width="1.5"/>
<path d="M48.7873 33.0004C50.3714 33.0004 51.8666 33.385 53.1821 34.0637" stroke-width="1.5"/>
<path d="M39.4336 40.4477C40.1903 37.1416 42.6544 34.487 45.848 33.46"  stroke-width="1.5"/>
<path d="M55.3439 42.4247C55.3439 42.481 55.3457 42.5391 55.3457 42.5953C55.3457 43.8945 54.9665 45.1066 54.3151 46.1245L54.2026 46.2969" stroke="#0C2C5C" stroke-width="1.5"/>
<path
  d="M43.3735 46.2973C42.6513 45.2448 42.2303 43.9692 42.2303 42.5956C42.2303 38.972 45.1662 36.038 48.788 36.038C50.6896 36.038 52.4007 36.8454 53.5983 38.1374"
  class="" stroke-width="1.5"
/>
<rect class="border" x="0.75" y="0.75" width="102.5" height="102.5" rx="51.25" stroke-width="1.5"/>

</svg>
