<svg width="56" height="56" viewBox="0 0 56 56" fill="none" xmlns="http://www.w3.org/2000/svg">
<rect class="background" width="56" height="56" rx="28"/>
<path d="M41.0007 22.9733H19.838V37.8656H41.0007V22.9733Z" stroke-width="1.2"/>
<path d="M32.7708 20.23L30.4193 15.5272L13.4435 23.5502L17.451 32.1765" stroke-width="1.2" stroke-linecap="square"/>
<path d="M20.2299 35.5141L23.6778 31.9469L27.1093 35.5141L34.8408 29.2437L40.3942 32.9411" stroke-width="1.2" stroke-linecap="square"/>
<path d="M29.4926 28.2659C29.7854 27.0107 29.0051 25.7557 27.7499 25.4629C26.4947 25.1701 25.2398 25.9504 24.947 27.2056C24.6542 28.4608 25.4344 29.7158 26.6896 30.0085C27.9448 30.3013 29.1998 29.5211 29.4926 28.2659Z" stroke-width="1.2" stroke-linejoin="round"/>
<rect class="border" x="0.5" y="0.5" width="55" height="55" rx="27.5"/>
</svg>
