<svg width="32" height="32" viewBox="0 0 32 32" fill="none" xmlns="http://www.w3.org/2000/svg">
<rect width="32" height="32" fill="#0C2C5C"/>
<path d="M22.2697 22.8649V14.6487C22.2697 13.7218 22.04 12.9996 21.5808 12.4819C21.1216 11.9558 20.4995 11.6928 19.7146 11.6928C19.2303 11.6928 18.7961 11.8055 18.412 12.031C18.0279 12.2481 17.7232 12.5737 17.4977 13.0079C17.2723 13.4338 17.1596 13.9431 17.1596 14.5359L15.8194 13.7469C15.8111 12.8117 16.0198 11.9892 16.4456 11.2795C16.8798 10.5614 17.4643 10.002 18.1991 9.60119C18.9339 9.2004 19.7522 9 20.654 9C22.1486 9 23.2925 9.45089 24.0857 10.3527C24.8873 11.2461 25.2881 12.4234 25.2881 13.8847V22.8649H22.2697ZM6 22.8649V9.33817H8.66777V13.534H9.04351V22.8649H6ZM14.1536 22.8649V14.6862C14.1536 13.7427 13.924 13.0079 13.4648 12.4819C13.0055 11.9558 12.3793 11.6928 11.586 11.6928C10.8179 11.6928 10.2 11.9558 9.73238 12.4819C9.27314 13.0079 9.04351 13.6926 9.04351 14.5359L7.69084 13.6342C7.69084 12.7574 7.90794 11.9684 8.34213 11.267C8.77632 10.5656 9.36081 10.0145 10.0956 9.61371C10.8387 9.20457 11.6695 9 12.588 9C13.5984 9 14.4417 9.2171 15.118 9.65129C15.8027 10.0771 16.312 10.6616 16.646 11.4048C16.9884 12.1395 17.1596 12.9703 17.1596 13.8972V22.8649H14.1536Z" fill="white"/>
</svg>
