<svg width="110" height="32" viewBox="0 0 110 32" fill="none" xmlns="http://www.w3.org/2000/svg">
<path d="M92.2659 24.0708H110" stroke="white" stroke-width="1.99561"/>
<path d="M18.1124 25V16.9998C18.1124 16.0974 17.8888 15.3941 17.4417 14.89C16.9945 14.3778 16.3888 14.1217 15.6245 14.1217C15.153 14.1217 14.7302 14.2315 14.3562 14.451C13.9822 14.6624 13.6855 14.9794 13.4659 15.4022C13.2464 15.8169 13.1367 16.3128 13.1367 16.8901L11.8318 16.1217C11.8236 15.2112 12.0269 14.4103 12.4415 13.7193C12.8643 13.0201 13.4334 12.4753 14.1489 12.0851C14.8644 11.6948 15.6611 11.4997 16.5392 11.4997C17.9945 11.4997 19.1084 11.9387 19.8807 12.8168C20.6612 13.6867 21.0515 14.8331 21.0515 16.2559V25H18.1124ZM2.27057 25V11.829H4.86819V15.9144H5.23405V25H2.27057ZM10.2098 25V17.0364C10.2098 16.1177 9.9862 15.4022 9.53903 14.89C9.09187 14.3778 8.4821 14.1217 7.70972 14.1217C6.96174 14.1217 6.3601 14.3778 5.9048 14.89C5.45764 15.4022 5.23405 16.0689 5.23405 16.8901L3.91695 16.012C3.91695 15.1583 4.12834 14.39 4.55111 13.7071C4.97389 13.0241 5.543 12.4875 6.25847 12.0973C6.98206 11.6989 7.79102 11.4997 8.68535 11.4997C9.66911 11.4997 10.4903 11.7111 11.1488 12.1339C11.8155 12.5485 12.3115 13.1176 12.6367 13.8412C12.97 14.5567 13.1367 15.3656 13.1367 16.2681V25H10.2098ZM29.5181 25.3659C28.1848 25.3659 27.014 25.0772 26.0059 24.5C24.9977 23.9227 24.2091 23.1219 23.64 22.0975C23.079 21.0731 22.7985 19.8942 22.7985 18.5608C22.7985 17.1218 23.0749 15.8738 23.6278 14.8168C24.1806 13.7518 24.9489 12.9266 25.9327 12.3412C26.9165 11.7558 28.0547 11.4631 29.3474 11.4631C30.7133 11.4631 31.8719 11.7843 32.8231 12.4265C33.7825 13.0607 34.4939 13.9591 34.9573 15.1217C35.4207 16.2844 35.5955 17.6543 35.4817 19.2316H32.567V18.1584C32.5589 16.7275 32.3068 15.6827 31.8109 15.0242C31.3149 14.3656 30.5344 14.0363 29.4694 14.0363C28.2661 14.0363 27.3718 14.4103 26.7864 15.1583C26.201 15.8982 25.9083 16.9836 25.9083 18.4145C25.9083 19.7478 26.201 20.7804 26.7864 21.5121C27.3718 22.2438 28.2254 22.6097 29.3474 22.6097C30.071 22.6097 30.693 22.4512 31.2133 22.1341C31.7418 21.8089 32.1483 21.3414 32.4328 20.7316L35.3354 21.6097C34.8313 22.7967 34.0508 23.7195 32.9938 24.378C31.945 25.0366 30.7865 25.3659 29.5181 25.3659ZM24.9815 19.2316V17.012H34.0426V19.2316H24.9815ZM45.4347 25C44.5647 25.1626 43.7111 25.2317 42.8736 25.2073C42.0443 25.1911 41.3004 25.0407 40.6419 24.7561C39.9833 24.4634 39.4833 24.004 39.1418 23.378C38.841 22.8089 38.6825 22.2276 38.6662 21.6341C38.65 21.0406 38.6418 20.3698 38.6418 19.6218V8.17035H41.5687V19.4511C41.5687 19.9796 41.5728 20.443 41.5809 20.8414C41.5972 21.2398 41.6826 21.565 41.837 21.817C42.1297 22.3048 42.5972 22.5772 43.2395 22.6341C43.8818 22.691 44.6135 22.6585 45.4347 22.5365V25ZM36.2515 14.1339V11.829H45.4347V14.1339H36.2515ZM51.4621 25.3659C50.5108 25.3659 49.7059 25.187 49.0474 24.8293C48.3888 24.4634 47.8888 23.9797 47.5473 23.378C47.214 22.7764 47.0473 22.1138 47.0473 21.3902C47.0473 20.756 47.153 20.1869 47.3644 19.6828C47.5758 19.1706 47.901 18.7316 48.34 18.3657C48.7791 17.9917 49.3482 17.6868 50.0474 17.451C50.5759 17.2803 51.1938 17.1258 51.9011 16.9876C52.6166 16.8494 53.3889 16.7234 54.2182 16.6096C55.0556 16.4876 55.9296 16.3575 56.8402 16.2193L55.7914 16.8169C55.7996 15.9063 55.5963 15.2355 55.1817 14.8046C54.767 14.3737 54.0678 14.1583 53.084 14.1583C52.4905 14.1583 51.9173 14.2965 51.3645 14.5729C50.8116 14.8494 50.4254 15.325 50.2059 15.9998L47.5229 15.1583C47.8482 14.0445 48.4661 13.1501 49.3766 12.4753C50.2954 11.8005 51.5312 11.4631 53.084 11.4631C54.2548 11.4631 55.2833 11.6542 56.1695 12.0363C57.0638 12.4184 57.7264 13.0444 58.1573 13.9144C58.3931 14.3778 58.5354 14.8534 58.5842 15.3412C58.633 15.8209 58.6573 16.3453 58.6573 16.9144V25H56.0841V22.1463L56.511 22.6097C55.9174 23.5609 55.2223 24.2601 54.4255 24.7073C53.6369 25.1463 52.6491 25.3659 51.4621 25.3659ZM52.0474 23.0243C52.7141 23.0243 53.2832 22.9065 53.7548 22.6707C54.2263 22.4349 54.6003 22.1463 54.8768 21.8048C55.1613 21.4633 55.3524 21.1422 55.45 20.8414C55.6044 20.4674 55.6898 20.0405 55.7061 19.5609C55.7304 19.073 55.7426 18.6787 55.7426 18.3779L56.6451 18.6462C55.7589 18.7844 54.9987 18.9064 54.3646 19.0121C53.7304 19.1178 53.1857 19.2194 52.7304 19.3169C52.2751 19.4064 51.8726 19.508 51.523 19.6218C51.1816 19.7438 50.8929 19.8861 50.6572 20.0487C50.4214 20.2113 50.2384 20.3983 50.1084 20.6097C49.9864 20.821 49.9254 21.069 49.9254 21.3536C49.9254 21.6788 50.0067 21.9674 50.1693 22.2194C50.3319 22.4634 50.5677 22.6585 50.8767 22.8048C51.1938 22.9512 51.584 23.0243 52.0474 23.0243Z" fill="white"/>
<path d="M67.425 25.3537C65.8803 25.3537 64.6079 25.0203 63.6079 24.3536C62.616 23.687 62.0062 22.7601 61.7785 21.5731L63.6079 21.2682C63.803 22.0162 64.2461 22.6138 64.9371 23.0609C65.6364 23.5 66.4982 23.7195 67.5226 23.7195C68.5226 23.7195 69.3112 23.5122 69.8885 23.0975C70.4657 22.6747 70.7544 22.1016 70.7544 21.378C70.7544 20.9715 70.6609 20.6422 70.4739 20.3901C70.295 20.13 69.9251 19.8901 69.3641 19.6706C68.8031 19.4511 67.9657 19.1909 66.8518 18.8901C65.6567 18.5649 64.7217 18.2397 64.0469 17.9145C63.3721 17.5893 62.8924 17.2153 62.6078 16.7925C62.3233 16.3616 62.181 15.8372 62.181 15.2193C62.181 14.4713 62.3924 13.8168 62.8151 13.2558C63.2379 12.6867 63.8233 12.2477 64.5713 11.9387C65.3193 11.6216 66.1892 11.4631 67.1811 11.4631C68.173 11.4631 69.0592 11.6257 69.8397 11.9509C70.6283 12.268 71.2625 12.7152 71.7422 13.2924C72.2219 13.8697 72.5064 14.5404 72.5959 15.3047L70.7666 15.6339C70.6446 14.8616 70.2584 14.2518 69.608 13.8046C68.9657 13.3493 68.1486 13.1135 67.1567 13.0973C66.2217 13.0729 65.4616 13.2518 64.8762 13.6339C64.2908 14.0079 63.9981 14.5079 63.9981 15.1339C63.9981 15.4835 64.1038 15.7843 64.3152 16.0364C64.5266 16.2803 64.9087 16.512 65.4616 16.7315C66.0225 16.951 66.8193 17.1909 67.8518 17.451C69.0633 17.76 70.0145 18.0852 70.7056 18.4267C71.3966 18.7682 71.8885 19.1706 72.1812 19.634C72.4739 20.0974 72.6203 20.6706 72.6203 21.3536C72.6203 22.5975 72.1568 23.5772 71.23 24.2927C70.3113 25 69.0429 25.3537 67.425 25.3537ZM79.8738 25.3293C79.0852 25.3293 78.3941 25.2073 77.8006 24.9634C77.2152 24.7195 76.7152 24.3902 76.3006 23.9756C75.8941 23.5609 75.5648 23.0894 75.3128 22.5609C75.0607 22.0243 74.8778 21.4593 74.764 20.8658C74.6502 20.2641 74.5932 19.6665 74.5932 19.073V11.829H76.3982V18.5486C76.3982 19.2722 76.4673 19.943 76.6055 20.5609C76.7437 21.1788 76.9632 21.7194 77.264 22.1829C77.573 22.6382 77.9673 22.9918 78.447 23.2439C78.9348 23.4959 79.5242 23.6219 80.2153 23.6219C80.8495 23.6219 81.4064 23.5122 81.8861 23.2926C82.3739 23.0731 82.7804 22.7601 83.1056 22.3536C83.439 21.939 83.691 21.4389 83.8617 20.8536C84.0325 20.2601 84.1178 19.5934 84.1178 18.8535L85.3862 19.134C85.3862 20.4836 85.1504 21.6178 84.6788 22.5365C84.2073 23.4552 83.5569 24.1504 82.7276 24.6219C81.8983 25.0935 80.947 25.3293 79.8738 25.3293ZM84.3008 25V21.756H84.1178V11.829H85.9106V25H84.3008Z" fill="white"/>
</svg>
