<svg width="110" height="18" xmlns="http://www.w3.org/2000/svg" fill="none">
  <path id="svg_1" fill="#0C2C5C" d="m16.26964,17.2842l0,-8.2162c0,-0.9269 -0.2296,-1.6491 -0.6888,-2.1668c-0.4593,-0.5261 -1.0814,-0.7891 -1.8662,-0.7891c-0.4843,0 -0.9185,0.1127 -1.3026,0.3382c-0.3841,0.2171 -0.6889,0.5427 -0.9143,0.9769c-0.2255,0.4259 -0.3382,0.9352 -0.3382,1.528l-1.3401,-0.789c-0.0084,-0.9352 0.2004,-1.7577 0.6262,-2.4674c0.4342,-0.7181 1.0187,-1.2775 1.7535,-1.6783c0.7348,-0.4008 1.553,-0.6012 2.4548,-0.6012c1.4946,0 2.6386,0.4509 3.4318,1.3527c0.8016,0.8934 1.2024,2.0707 1.2024,3.532l0,8.9802l-3.0185,0zm-16.26964,0l0,-13.5267l2.66777,0l0,4.1958l0.37574,0l0,9.3309l-3.04351,0zm8.15364,0l0,-8.1787c0,-0.9435 -0.2296,-1.6783 -0.6889,-2.2043c-0.45923,-0.5261 -1.08547,-0.7891 -1.8787,-0.7891c-0.76819,0 -1.38607,0.263 -1.85366,0.7891c-0.45924,0.526 -0.68887,1.2107 -0.68887,2.054l-1.35267,-0.9017c0,-0.8768 0.2171,-1.6658 0.65129,-2.3672c0.43419,-0.7014 1.01868,-1.2525 1.75346,-1.6533c0.74314,-0.4091 1.57395,-0.6137 2.49243,-0.6137c1.01032,0 1.85362,0.2171 2.53002,0.6513c0.6847,0.4258 1.194,1.0103 1.528,1.7535c0.3423,0.7347 0.5135,1.5656 0.5135,2.4924l0,8.9677l-3.0059,0zm19.8298,0.3757c-1.3694,0 -2.5718,-0.2964 -3.6071,-0.8892c-1.0354,-0.5928 -1.8454,-1.4153 -2.4298,-2.4674c-0.5762,-1.0521 -0.8643,-2.2628 -0.8643,-3.6322c0,-1.4779 0.2839,-2.7596 0.8517,-3.8451c0.5678,-1.0938 1.3569,-1.9413 2.3672,-2.5425c1.0103,-0.6012 2.1793,-0.9018 3.5069,-0.9018c1.4028,0 2.5927,0.3298 3.5696,0.9895c0.9853,0.6513 1.7159,1.5739 2.1918,2.768c0.476,1.194 0.6555,2.6009 0.5386,4.2208l-2.9934,0l0,-1.1022c-0.0084,-1.4696 -0.2672,-2.5425 -0.7766,-3.2188c-0.5093,-0.6764 -1.3109,-1.0145 -2.4047,-1.0145c-1.2358,0 -2.1543,0.384 -2.7555,1.1522c-0.6011,0.7599 -0.9017,1.8746 -0.9017,3.3441c0,1.3694 0.3006,2.4298 0.9017,3.1813c0.6012,0.7515 1.478,1.1273 2.6302,1.1273c0.7432,0 1.3819,-0.1629 1.9163,-0.4885c0.5428,-0.334 0.9603,-0.8141 1.2525,-1.4404l2.9809,0.9018c-0.5177,1.2191 -1.3193,2.1668 -2.4048,2.8431c-1.0771,0.6764 -2.2669,1.0145 -3.5695,1.0145zm-4.6592,-6.2999l0,-2.2795l9.3059,0l0,2.2795l-9.3059,0zm21.0056,5.9242c-0.8935,0.167 -1.7702,0.238 -2.6302,0.2129c-0.8517,-0.0167 -1.6157,-0.1711 -2.2921,-0.4634c-0.6763,-0.3006 -1.1898,-0.7723 -1.5405,-1.4153c-0.309,-0.5845 -0.4718,-1.1815 -0.4885,-1.791c-0.0167,-0.6096 -0.025,-1.2984 -0.025,-2.0666l0,-11.7608l3.0059,0l0,11.5854c0,0.5428 0.0042,1.0187 0.0125,1.4279c0.0167,0.4091 0.1044,0.7431 0.2631,1.0019c0.3005,0.501 0.7807,0.7808 1.4403,0.8392c0.6596,0.0585 1.4111,0.0251 2.2545,-0.1002l0,2.53zm-9.4312,-11.1595l0,-2.3672l9.4312,0l0,2.3672l-9.4312,0zm15.6213,11.5352c-0.9769,0 -1.8035,-0.1836 -2.4799,-0.551c-0.6763,-0.3758 -1.1898,-0.8726 -1.5405,-1.4905c-0.3424,-0.6179 -0.5135,-1.2984 -0.5135,-2.0415c0,-0.6513 0.1085,-1.2358 0.3256,-1.7535c0.2171,-0.526 0.5511,-0.9769 1.002,-1.3527c0.4509,-0.3841 1.0354,-0.6972 1.7534,-0.9393c0.5428,-0.1754 1.1774,-0.334 1.9038,-0.476c0.7348,-0.1419 1.528,-0.2713 2.3797,-0.3882c0.86,-0.1253 1.7577,-0.2589 2.6928,-0.4008l-1.0771,0.6137c0.0084,-0.9352 -0.2004,-1.624 -0.6262,-2.0666c-0.4259,-0.4425 -1.144,-0.6638 -2.1543,-0.6638c-0.6095,0 -1.1982,0.1419 -1.766,0.4258c-0.5678,0.2839 -0.9644,0.7724 -1.1898,1.4654l-2.7555,-0.8642c0.334,-1.1439 0.9686,-2.0624 1.9038,-2.7554c0.9435,-0.6931 2.2127,-1.0396 3.8075,-1.0396c1.2024,0 2.2586,0.1963 3.1688,0.5887c0.9185,0.3924 1.599,1.0354 2.0415,1.9288c0.2422,0.4759 0.3883,0.9644 0.4384,1.4654c0.0501,0.4926 0.0751,1.0312 0.0751,1.6157l0,8.3039l-2.6427,0l0,-2.9308l0.4384,0.476c-0.6096,0.9769 -1.3235,1.695 -2.1418,2.1542c-0.8099,0.4509 -1.8244,0.6763 -3.0435,0.6763zm0.6012,-2.4047c0.6847,0 1.2692,-0.1211 1.7535,-0.3632c0.4843,-0.2422 0.8684,-0.5386 1.1522,-0.8893c0.2923,-0.3507 0.4885,-0.6805 0.5887,-0.9894c0.1587,-0.3841 0.2463,-0.8225 0.263,-1.3151c0.0251,-0.501 0.0376,-0.906 0.0376,-1.2149l0.9268,0.2755c-0.9101,0.142 -1.6908,0.2672 -2.3421,0.3758c-0.6513,0.1085 -1.2107,0.2129 -1.6783,0.3131c-0.4676,0.0918 -0.8809,0.1962 -1.24,0.3131c-0.3507,0.1252 -0.6471,0.2714 -0.8892,0.4384c-0.2422,0.167 -0.43,0.359 -0.5636,0.5761c-0.1253,0.2171 -0.1879,0.4718 -0.1879,0.764c0,0.334 0.0835,0.6304 0.2505,0.8893c0.167,0.2505 0.4091,0.4509 0.7264,0.6012c0.3257,0.1502 0.7265,0.2254 1.2024,0.2254z"/>
  <path id="svg_2" fill="#0C2C5C" d="m67.18484,17.6474c-1.5865,0 -2.8932,-0.3423 -3.9202,-1.027c-1.0187,-0.6847 -1.645,-1.6366 -1.8787,-2.8556l1.8787,-0.3132c0.2004,0.7682 0.6554,1.3819 1.3652,1.8412c0.718,0.4509 1.6031,0.6763 2.6552,0.6763c1.027,0 1.837,-0.2129 2.4298,-0.6388c0.5929,-0.4341 0.8893,-1.0228 0.8893,-1.7659c0,-0.4175 -0.0961,-0.7557 -0.2881,-1.0146c-0.1837,-0.2671 -0.5636,-0.5135 -1.1398,-0.7389c-0.5761,-0.2255 -1.4361,-0.4927 -2.5801,-0.8016c-1.2274,-0.334 -2.1876,-0.668 -2.8806,-1.002c-0.6931,-0.334 -1.1857,-0.7181 -1.478,-1.1523c-0.2922,-0.4425 -0.4383,-0.9811 -0.4383,-1.6156c0,-0.7682 0.2171,-1.4404 0.6513,-2.0165c0.4341,-0.5845 1.0353,-1.0354 1.8035,-1.3527c0.7682,-0.3256 1.6616,-0.4885 2.6803,-0.4885c1.0187,0 1.9288,0.167 2.7304,0.501c0.8099,0.3257 1.4612,0.7849 1.9539,1.3777c0.4926,0.5929 0.7849,1.2817 0.8767,2.0666l-1.8787,0.3382c-0.1253,-0.7932 -0.5219,-1.4195 -1.1899,-1.8787c-0.6596,-0.4676 -1.4988,-0.7098 -2.5174,-0.7265c-0.9603,-0.025 -1.741,0.1587 -2.3422,0.5511c-0.6011,0.3841 -0.9017,0.8976 -0.9017,1.5406c0,0.359 0.1085,0.668 0.3256,0.9268c0.2171,0.2505 0.6095,0.4885 1.1773,0.7139c0.5762,0.2255 1.3944,0.4718 2.4549,0.739c1.2441,0.3173 2.221,0.6513 2.9308,1.002c0.7097,0.3507 1.2149,0.764 1.5155,1.2399c0.3006,0.476 0.4509,1.0646 0.4509,1.766c0,1.2775 -0.476,2.2837 -1.4279,3.0185c-0.9435,0.7264 -2.2461,1.0896 -3.9077,1.0896zm12.785,-0.025c-0.8099,0 -1.5196,-0.1253 -2.1292,-0.3758c-0.6012,-0.2505 -1.1147,-0.5886 -1.5405,-1.0145c-0.4175,-0.4258 -0.7557,-0.9101 -1.0145,-1.4528c-0.2589,-0.5511 -0.4467,-1.1314 -0.5636,-1.741c-0.1169,-0.6179 -0.1754,-1.2316 -0.1754,-1.8411l0,-7.4397l1.8537,0l0,6.9011c0,0.7431 0.071,1.432 0.2129,2.0666c0.142,0.6346 0.3674,1.1898 0.6763,1.6658c0.3173,0.4676 0.7223,0.8308 1.2149,1.0896c0.501,0.2589 1.1064,0.3883 1.8161,0.3883c0.6513,0 1.2233,-0.1127 1.7159,-0.3382c0.501,-0.2254 0.9185,-0.5469 1.2525,-0.9644c0.3423,-0.4258 0.6012,-0.9393 0.7765,-1.5405c0.1754,-0.6095 0.2631,-1.2942 0.2631,-2.0541l1.3025,0.2881c0,1.3861 -0.2421,2.5509 -0.7264,3.4944c-0.4843,0.9435 -1.1523,1.6574 -2.004,2.1417c-0.8516,0.4843 -1.8286,0.7265 -2.9308,0.7265zm4.5465,-0.3382l0,-3.3316l-0.1878,0l0,-10.1951l1.8411,0l0,13.5267l-1.6533,0z"/>
  <path id="svg_3" stroke-width="2.0495" stroke="#0C2C5C" d="m92.19904,16.0049l18.2178,0"/>
</svg>