<svg width="148" height="148" viewBox="0 0 148 148" fill="none" xmlns="http://www.w3.org/2000/svg">
<rect x="27" y="69" width="40" height="64" fill="#CED5DE"/>
<path d="M105.857 71.909C102.905 71.7256 100.149 73.406 98.9891 75.8825V75.2674C98.9891 71.4906 96.0755 68.194 92.3041 68.0807C88.3978 67.962 85.1929 71.0968 85.1929 74.9761V73.2927C85.1929 69.5159 82.2794 66.2193 78.508 66.106C74.6017 65.9873 71.3968 71.9115 71.3968 75.7908V47.2974C71.3968 43.5206 68.4832 40.224 64.7118 40.1107C60.8055 39.992 57.6006 43.1267 57.6006 47.0061V85.972C54.2338 81.8499 50.1009 78.3752 45.4446 75.7908C44.4842 75.2566 43.3998 74.9761 42.3045 74.9761C39.3909 74.9761 36.5695 76.0768 35.8141 79.0443C35.0696 81.9632 36.7903 85.7994 39.4071 87.2831C50.0685 93.326 53.81 103.833 58.1156 114.613C60.1874 119.798 64.7118 129.48 78.93 130.967H90.8239C110.152 127.994 112.138 110.834 112.138 106.739V105.137V84.9469V79.0443C112.138 75.3538 109.359 72.1219 105.674 71.8953L105.857 71.909Z" stroke="#0C2C5C" stroke-width="3" stroke-linecap="round"/>
<path d="M92.5466 40.1191C93.016 42.1747 93.2642 44.3113 93.2642 46.5073C93.2642 50.4136 92.4872 54.1257 91.0628 57.514" stroke="#0C2C5C" stroke-width="3" stroke-linecap="square"/>
<path d="M64.737 17.9745C69.4472 17.9745 73.8931 19.1184 77.8048 21.1363" stroke="#0C2C5C" stroke-width="3" stroke-linecap="square"/>
<path d="M36.924 40.119C39.1739 30.2885 46.5009 22.3949 55.9969 19.3411" stroke="#0C2C5C" stroke-width="3" stroke-linecap="square"/>
<path d="M84.233 45.9978C84.233 46.1651 84.2384 46.3377 84.2384 46.505C84.2384 50.3681 83.1108 53.9723 81.1738 56.9992L80.8393 57.5117" stroke="#0C2C5C" stroke-width="3" stroke-linecap="square"/>
<path d="M48.639 57.5127C46.4916 54.3833 45.2399 50.5903 45.2399 46.506C45.2399 35.7313 53.9697 27.0068 64.739 27.0068C70.3934 27.0068 75.4814 29.4078 79.0423 33.2494" stroke="#0C2C5C" stroke-width="3" stroke-linecap="square"/>
</svg>
