<svg width="37" height="44" viewBox="0 0 37 44" fill="none" xmlns="http://www.w3.org/2000/svg">
<path fill-rule="evenodd" clip-rule="evenodd" d="M1.90795 16.1746C-1.91673 22.6296 0.514687 32.4255 4.74416 38.365C6.85534 41.3345 8.99277 44.0001 11.9204 44.0001C11.9755 44.0001 12.0309 43.9991 12.0875 43.9969C13.463 43.9435 14.4569 43.5316 15.418 43.1336C16.4969 42.6864 17.6128 42.2241 19.3631 42.2241C21.0283 42.2241 22.0909 42.6714 23.1185 43.1039C24.1313 43.5301 25.1745 43.9709 26.716 43.9428C30.0136 43.8831 32.0383 41.0068 33.8247 38.4693C35.6887 35.82 36.6238 33.2476 36.9393 32.2646L36.9521 32.2255C37.0121 32.0508 36.9273 31.8601 36.7551 31.7832C36.7503 31.781 36.7328 31.774 36.7279 31.772C36.1472 31.541 31.0533 29.3432 30.9997 23.3528C30.95 18.486 34.8211 15.9087 35.5975 15.4416L35.6337 15.4197C35.7178 15.367 35.7764 15.2835 35.7963 15.188C35.8161 15.0926 35.7954 14.9934 35.739 14.9132C33.067 11.1101 28.9716 10.537 27.3228 10.468C27.0835 10.4448 26.8366 10.4331 26.5885 10.4331C24.652 10.4331 22.7968 11.1445 21.3064 11.716C20.2776 12.1106 19.3889 12.4513 18.776 12.4513C18.0873 12.4513 17.1936 12.1064 16.1587 11.7071C14.7748 11.1729 13.2062 10.5676 11.5457 10.5676C11.5061 10.5676 11.4671 10.568 11.4286 10.5687C7.56762 10.624 3.9193 12.7723 1.90795 16.1746Z" fill="#1A1A1A"/>
<path fill-rule="evenodd" clip-rule="evenodd" d="M27.3259 0.000277191C24.9878 0.0928936 22.183 1.49267 20.5066 3.40242C19.0819 5.00762 17.6901 7.68398 18.0568 10.3817C18.0798 10.5505 18.221 10.6807 18.3956 10.6939C18.5534 10.7058 18.7145 10.7119 18.875 10.712C21.1612 10.712 23.6275 9.48192 25.3117 7.5012C27.0844 5.40968 27.9808 2.72554 27.7096 0.321261C27.6883 0.132854 27.5178 -0.00708019 27.3259 0.000277191Z" fill="#1A1A1A"/>
</svg>
