<svg viewBox="0 0 125 60" fill="none" xmlns="http://www.w3.org/2000/svg">
<g clip-path="url(#clip0_4135_8787)">
<path d="M45.7738 2.795C45.7738 3.07571 45.7369 3.32214 45.6646 3.53286C45.5923 3.74357 45.4934 3.92571 45.3686 4.07714C45.2431 4.23 45.0977 4.35286 44.9331 4.44643C44.7671 4.54 44.5958 4.61071 44.418 4.65714V4.68071C44.6357 4.72 44.8394 4.79357 45.0291 4.90357C45.4195 5.12756 45.7155 5.47799 45.8646 5.89286C45.9495 6.11571 45.9916 6.36 45.9916 6.625C45.9953 6.92581 45.9376 7.22438 45.8218 7.50357C45.7089 7.76928 45.534 7.99928 45.2955 8.195C45.0579 8.39 44.7567 8.54214 44.3936 8.65214C44.0312 8.76071 43.5994 8.81571 43.099 8.81571H41.3925V0.733571H43.0015C43.4939 0.733571 43.916 0.782143 44.2666 0.88C44.618 0.977143 44.9066 1.11571 45.1324 1.29571C45.3583 1.475 45.5214 1.69214 45.6225 1.94571C45.7236 2.19929 45.7738 2.48286 45.7738 2.795ZM44.7088 2.83C44.7088 2.455 44.5715 2.14643 44.2969 1.905C44.0231 1.66214 43.5913 1.54143 43.0023 1.54143H42.445V4.32928H42.9897C43.5544 4.32928 43.9825 4.19643 44.2733 3.93071C44.5634 3.66571 44.7088 3.29857 44.7088 2.83ZM44.866 6.555C44.866 6.11786 44.7184 5.77214 44.4246 5.51786C44.1294 5.26428 43.7086 5.13786 43.1595 5.13786H42.445V7.97214H43.099C43.7205 7.97214 44.17 7.85286 44.4482 7.615C44.7272 7.37643 44.866 7.02357 44.866 6.555ZM51.3538 8.81571H50.4578V8.18286H50.4334C50.314 8.36751 50.1553 8.52532 49.9677 8.64571C49.8422 8.72786 49.6916 8.8 49.5138 8.86214C49.3366 8.925 49.1388 8.95643 48.9211 8.95643C48.6627 8.95643 48.431 8.91928 48.2251 8.845C48.0205 8.77186 47.839 8.64884 47.698 8.48786C47.5534 8.32357 47.4419 8.11071 47.3659 7.84928C47.2891 7.58786 47.2508 7.26571 47.2508 6.88286V3.19286H48.2309V6.81286C48.2309 7.28143 48.3099 7.615 48.4671 7.81428C48.6244 8.01286 48.8687 8.11286 49.1993 8.11286C49.4813 8.11286 49.7197 8.04428 49.9131 7.90786C50.1072 7.77143 50.26 7.63643 50.3729 7.50357V3.19286H51.3538V8.81571ZM56.026 8.81571V5.19643C56.026 4.72 55.9433 4.37786 55.778 4.17143C55.6119 3.96428 55.3602 3.86071 55.0214 3.86071C54.7306 3.86071 54.4885 3.93071 54.2951 4.07143C54.101 4.21214 53.9482 4.34857 53.8346 4.48143V8.81571H52.8544V3.19286H53.7504V3.82571H53.774C53.8937 3.63916 54.0552 3.48099 54.2464 3.36286C54.3906 3.27383 54.5449 3.2012 54.7063 3.14643C54.8834 3.08357 55.0856 3.05286 55.3115 3.05286C55.5698 3.05286 55.8038 3.09 56.0134 3.16357C56.2238 3.23786 56.4009 3.35714 56.5463 3.52071C56.6917 3.685 56.8047 3.89786 56.8851 4.15929C56.9663 4.42071 57.0062 4.74357 57.0062 5.12571V8.81571H56.026ZM58.2041 6.08643C58.2041 5.51643 58.2809 5.04 58.4344 4.65786C58.5879 4.275 58.7857 3.96643 59.0278 3.73214C59.2699 3.49786 59.5445 3.33214 59.8508 3.23429C60.1473 3.13831 60.4578 3.08887 60.7705 3.08786C60.9557 3.08786 61.1174 3.10143 61.2546 3.12857C61.3919 3.15571 61.5049 3.18929 61.5942 3.22857V0.534286L62.5729 0.428571V8.81571H61.6776V8.21786H61.6532C61.555 8.39084 61.4187 8.54081 61.2539 8.65714C61.1244 8.74765 60.9816 8.81891 60.8302 8.86857C60.6605 8.92714 60.4627 8.95643 60.2368 8.95643C59.963 8.95643 59.7024 8.90357 59.4566 8.79786C59.2006 8.68502 58.9778 8.51189 58.8086 8.29428C58.6233 8.06357 58.4765 7.76714 58.3672 7.40428C58.258 7.04071 58.2041 6.60143 58.2041 6.08643ZM60.504 8.11286C60.6815 8.11628 60.8577 8.08367 61.0213 8.01711C61.1849 7.95054 61.3323 7.85152 61.4539 7.72643C61.5152 7.66357 61.561 7.60928 61.5942 7.56214V4.095C61.4971 4.03657 61.3933 3.98934 61.2849 3.95428C61.1418 3.91156 60.9925 3.89177 60.8428 3.89571C60.6169 3.89571 60.4051 3.93286 60.208 4.00714C60.0102 4.08143 59.839 4.20429 59.6928 4.37643C59.5482 4.54786 59.433 4.77071 59.3481 5.04357C59.2633 5.31714 59.2212 5.65286 59.2212 6.05071C59.2212 6.44143 59.2551 6.76786 59.3245 7.02928C59.3924 7.29071 59.4869 7.50143 59.6087 7.66143C59.7297 7.82214 59.867 7.93714 60.0198 8.00714C60.1733 8.07786 60.335 8.11286 60.504 8.11286ZM67.803 5.09071C67.803 5.33286 67.7949 5.54143 67.7787 5.71714C67.7647 5.87164 67.7484 6.02594 67.7299 6.18H64.765C64.7968 6.84428 64.9444 7.33214 65.2064 7.64428C65.4684 7.95643 65.8463 8.11286 66.3379 8.11286C66.5077 8.11286 66.6612 8.09357 66.7985 8.05428C67.0871 7.97594 67.3498 7.82656 67.5609 7.62071L67.9241 8.28857C67.8835 8.32786 67.823 8.38428 67.7425 8.45857C67.6613 8.53214 67.5528 8.60643 67.4155 8.68071C67.2543 8.76395 67.0837 8.82867 66.907 8.87357C66.674 8.93223 66.4339 8.9601 66.1932 8.95643C65.8301 8.95643 65.5009 8.89786 65.2064 8.78071C64.9123 8.6639 64.6539 8.4763 64.4558 8.23571C64.2506 7.99 64.0911 7.67714 63.9782 7.29857C63.8653 6.92 63.8085 6.465 63.8085 5.93428C63.8085 5.43428 63.8675 5.00286 63.9841 4.64C64.1007 4.27643 64.2602 3.97786 64.4624 3.74357C64.6639 3.50929 64.8979 3.33571 65.1636 3.22214C65.43 3.10929 65.7172 3.05286 66.0235 3.05286C66.58 3.05286 67.0162 3.22214 67.3306 3.56214C67.6451 3.90143 67.803 4.41143 67.803 5.09071ZM65.963 3.82571C65.6161 3.82571 65.3378 3.96643 65.1274 4.24714C64.9178 4.52857 64.7968 4.93428 64.765 5.46571H66.8834C66.8907 5.42643 66.8966 5.37 66.9011 5.29571C66.9052 5.21578 66.9071 5.13575 66.907 5.05571C66.907 4.665 66.8258 4.36286 66.6649 4.14786C66.5032 3.93357 66.2693 3.82571 65.963 3.82571ZM71.6153 4.32928C71.5079 4.22323 71.3905 4.1271 71.2647 4.04214C71.0949 3.92071 70.8735 3.86071 70.5989 3.86071C70.3406 3.86071 70.1428 3.91929 70.0055 4.03643C69.941 4.08746 69.889 4.15176 69.8534 4.22466C69.8178 4.29756 69.7994 4.37722 69.7996 4.45786C69.7996 4.66928 69.8623 4.84286 69.9878 4.97928C70.1125 5.11643 70.3044 5.26214 70.5628 5.41857L70.9252 5.62928C71.3208 5.85571 71.6315 6.1 71.8574 6.36143C72.0832 6.62286 72.1969 6.96143 72.1969 7.375C72.1969 7.82 72.0367 8.195 71.7186 8.49928C71.3998 8.80357 70.9414 8.95643 70.3443 8.95643C70.1103 8.95643 69.9044 8.93286 69.7272 8.88571C69.5671 8.84492 69.4112 8.78992 69.2615 8.72143C69.1419 8.6675 69.03 8.59883 68.9286 8.51714C68.84 8.44286 68.767 8.37428 68.7109 8.31214L69.1833 7.56214C69.2312 7.60928 69.2896 7.66357 69.3582 7.72643C69.5237 7.87388 69.7197 7.98564 69.9332 8.05428C70.0542 8.09357 70.1952 8.11286 70.3568 8.11286C70.6469 8.11286 70.8691 8.05 71.0226 7.925C71.0944 7.87085 71.1525 7.80148 71.1922 7.72223C71.232 7.64299 71.2525 7.55596 71.2521 7.46786C71.2548 7.35072 71.2365 7.23401 71.1983 7.12286C71.162 7.02547 71.1063 6.93593 71.0344 6.85928C70.955 6.77556 70.8658 6.70102 70.7687 6.63714C70.6487 6.55723 70.5274 6.47913 70.4048 6.40286L70.0417 6.18C69.6785 5.95357 69.3944 5.71571 69.1884 5.46571C68.9832 5.21571 68.8799 4.89571 68.8799 4.505C68.8799 4.29428 68.9227 4.10071 69.0069 3.925C69.0911 3.74986 69.2129 3.59404 69.3641 3.46786C69.5176 3.33929 69.697 3.23786 69.9029 3.16357C70.1142 3.08864 70.3377 3.05114 70.5628 3.05286C70.7585 3.04934 70.9538 3.07096 71.1436 3.11714C71.4056 3.18312 71.6479 3.30737 71.8515 3.48C71.9282 3.54643 71.991 3.60286 72.039 3.65L71.6153 4.32928ZM76.3967 8.815V5.19714C76.3967 4.73571 76.328 4.40428 76.19 4.20143C76.0535 3.99786 75.8313 3.89643 75.525 3.89643C75.2557 3.89223 74.991 3.96342 74.7625 4.10143C74.6704 4.15617 74.5849 4.22087 74.5079 4.29428C74.4355 4.36571 74.375 4.42786 74.327 4.48214V8.81643H73.3461V3.19286H74.2422V3.82571H74.2665C74.3064 3.76286 74.3669 3.68714 74.4474 3.59714C74.6448 3.38556 74.8948 3.22624 75.1737 3.13428C75.336 3.08 75.5169 3.05286 75.7184 3.05286C76.3804 3.05286 76.8484 3.30286 77.123 3.80286C77.2747 3.60056 77.4682 3.43101 77.6913 3.305C77.9839 3.13619 78.319 3.04893 78.6597 3.05286C79.8377 3.05286 80.4267 3.71643 80.4267 5.04357V8.815H79.4465V5.19714C79.4465 4.73571 79.3616 4.40428 79.1926 4.20143C79.0228 3.99786 78.7726 3.89643 78.4419 3.89643C78.1674 3.89643 77.94 3.96071 77.7585 4.08928C77.5769 4.21857 77.4337 4.34143 77.3281 4.45857C77.3444 4.54428 77.3569 4.63714 77.3651 4.73428C77.3724 4.83143 77.3769 4.935 77.3769 5.04428V8.81571H76.3967V8.815ZM82.872 8.815H81.8918V3.19357H82.872V8.815ZM82.3878 1.83429C82.1863 1.83429 82.0246 1.77214 81.9036 1.64714C81.7825 1.52214 81.722 1.35786 81.722 1.155C81.722 0.96 81.7825 0.8 81.9036 0.675C82.0246 0.55 82.1863 0.487143 82.3878 0.487143C82.5812 0.487143 82.7391 0.55 82.8602 0.675C82.9812 0.8 83.0417 0.96 83.0417 1.155C83.0417 1.35786 82.9812 1.52214 82.8602 1.64714C82.7998 1.70911 82.7264 1.75786 82.6449 1.79013C82.5634 1.82241 82.4758 1.83746 82.3878 1.83429ZM87.5441 8.81571V5.19643C87.5441 4.72 87.4615 4.37786 87.2961 4.17143C87.1308 3.96428 86.8784 3.86071 86.5396 3.86071C86.2488 3.86071 86.0067 3.93071 85.8133 4.07143C85.6199 4.21214 85.4664 4.34857 85.3535 4.48143V8.81571H84.3725V3.19286H85.2686V3.82571H85.2929C85.4126 3.63916 85.574 3.48099 85.7653 3.36286C85.9092 3.27388 86.0633 3.20125 86.2244 3.14643C86.4016 3.08357 86.6038 3.05286 86.8296 3.05286C87.088 3.05286 87.322 3.09 87.5323 3.16357C87.7419 3.23786 87.9191 3.35714 88.0645 3.52071C88.2099 3.685 88.3228 3.89786 88.404 4.15929C88.4837 4.42071 88.5243 4.74357 88.5243 5.12571V8.81571H87.5441ZM90.9689 8.81571H89.9887V3.19286H90.9696L90.9689 8.81571ZM90.4854 1.83429C90.2839 1.83429 90.1223 1.77214 90.0012 1.64714C89.8802 1.52214 89.8197 1.35786 89.8197 1.155C89.8197 0.96 89.8802 0.8 90.0012 0.675C90.1223 0.55 90.2839 0.487143 90.4854 0.487143C90.6788 0.487143 90.836 0.55 90.9578 0.675C91.0781 0.8 91.1386 0.96 91.1386 1.155C91.1386 1.35786 91.0781 1.52214 90.9571 1.64714C90.8967 1.70911 90.8233 1.75786 90.7418 1.79013C90.6603 1.82241 90.5734 1.83746 90.4854 1.83429ZM94.976 4.32928C94.8684 4.2232 94.7508 4.12707 94.6247 4.04214C94.4549 3.92071 94.2335 3.86071 93.9589 3.86071C93.7006 3.86071 93.5035 3.91929 93.3662 4.03643C93.3016 4.08739 93.2495 4.15166 93.2137 4.22456C93.178 4.29747 93.1595 4.37716 93.1595 4.45786C93.1595 4.66928 93.223 4.84286 93.3478 4.97928C93.4732 5.11643 93.6651 5.26214 93.9227 5.41857L94.2859 5.62928C94.6815 5.85571 94.9922 6.1 95.2181 6.36143C95.4439 6.62286 95.5569 6.96143 95.5569 7.375C95.5569 7.82 95.3974 8.195 95.0786 8.49928C94.7597 8.80357 94.3021 8.95643 93.705 8.95643C93.471 8.95643 93.2651 8.93286 93.088 8.88571C92.9276 8.84496 92.7714 8.78996 92.6215 8.72143C92.5021 8.66745 92.3905 8.59878 92.2893 8.51714C92.2 8.44286 92.127 8.37428 92.0709 8.31214L92.5432 7.56214C92.5912 7.60928 92.6495 7.66357 92.7182 7.72643C92.8839 7.87397 93.0801 7.98573 93.2939 8.05428C93.4142 8.09357 93.5559 8.11286 93.7168 8.11286C94.0076 8.11286 94.2298 8.05 94.3826 7.925C94.4545 7.87092 94.5127 7.80159 94.5526 7.72233C94.5926 7.64308 94.6132 7.55602 94.6129 7.46786C94.6152 7.35068 94.5968 7.23397 94.5582 7.12286C94.5222 7.02553 94.4668 6.93599 94.3951 6.85928C94.3155 6.77552 94.2261 6.70098 94.1287 6.63714C94.0089 6.55724 93.8878 6.47913 93.7655 6.40286L93.4024 6.18C93.0392 5.95357 92.7543 5.71571 92.5491 5.46571C92.3432 5.21571 92.2406 4.89571 92.2406 4.505C92.2406 4.29428 92.2827 4.10071 92.3676 3.925C92.4519 3.74986 92.5736 3.59404 92.7248 3.46786C92.8776 3.33929 93.057 3.23786 93.2636 3.16357C93.4747 3.08872 93.6979 3.05122 93.9227 3.05286C94.1184 3.04934 94.3138 3.07096 94.5036 3.11714C94.7658 3.18301 95.0084 3.30727 95.2122 3.48C95.2882 3.54643 95.3509 3.60286 95.3997 3.65L94.976 4.32928ZM99.1876 3.96643H97.9173V7.08214C97.9173 7.48 97.969 7.75143 98.0745 7.89643C98.1793 8.04071 98.3565 8.11286 98.6067 8.11286C98.7521 8.11286 98.8776 8.09357 98.9824 8.05428C99.0624 8.02666 99.1393 7.99124 99.2119 7.94857L99.3448 8.71C99.2533 8.76785 99.1561 8.81689 99.0547 8.85643C98.9012 8.92286 98.696 8.95643 98.4377 8.95643C97.9372 8.95643 97.5623 8.82143 97.3121 8.55214C97.0611 8.28286 96.9364 7.83571 96.9364 7.21071V3.96643H96.2352V3.33357L96.9364 3.19286L97.0456 1.62357H97.9166V3.19286H99.3086L99.1876 3.96643ZM103.945 5.09071C103.945 5.33286 103.937 5.54143 103.92 5.71714C103.906 5.87164 103.89 6.02594 103.872 6.18H100.907C100.939 6.84428 101.086 7.33214 101.349 7.64428C101.611 7.95643 101.988 8.11286 102.48 8.11286C102.65 8.11286 102.803 8.09357 102.94 8.05428C103.229 7.97594 103.491 7.82656 103.702 7.62071L104.066 8.28857C104.025 8.32786 103.965 8.38428 103.884 8.45857C103.803 8.53214 103.694 8.60643 103.557 8.68071C103.396 8.7639 103.226 8.82862 103.049 8.87357C102.816 8.93229 102.576 8.96016 102.335 8.95643C101.972 8.95643 101.643 8.89786 101.349 8.78071C101.055 8.6639 100.796 8.4763 100.598 8.23571C100.392 7.99 100.233 7.67714 100.12 7.29857C100.007 6.92 99.95 6.465 99.95 5.93428C99.95 5.43428 100.009 5.00286 100.126 4.64C100.243 4.27643 100.402 3.97786 100.604 3.74357C100.805 3.50929 101.039 3.33571 101.306 3.22214C101.572 3.10929 101.859 3.05286 102.166 3.05286C102.722 3.05286 103.158 3.22214 103.472 3.56214C103.787 3.90143 103.945 4.41143 103.945 5.09071ZM102.105 3.82571C101.758 3.82571 101.479 3.96643 101.27 4.24714C101.06 4.52857 100.939 4.93428 100.907 5.46571H103.025C103.032 5.42643 103.039 5.37 103.043 5.29571C103.048 5.21578 103.049 5.13575 103.049 5.05571C103.049 4.665 102.968 4.36286 102.807 4.14786C102.646 3.93357 102.412 3.82571 102.105 3.82571ZM107.806 4.025C107.756 3.99942 107.703 3.97975 107.648 3.96643C107.542 3.93977 107.432 3.92775 107.321 3.93071C107.015 3.93071 106.775 4.01143 106.602 4.17143C106.439 4.31583 106.313 4.49416 106.233 4.69286V8.81571H105.252V3.19286H106.148V3.95428H106.172C106.212 3.845 106.264 3.73786 106.329 3.63286C106.394 3.52714 106.474 3.43286 106.571 3.35143C106.667 3.26928 106.783 3.205 106.916 3.15857C107.07 3.10812 107.232 3.08395 107.394 3.08714C107.532 3.08714 107.642 3.09929 107.727 3.12286C107.812 3.14643 107.879 3.16571 107.927 3.18143L107.806 4.02428V4.025ZM109.754 8.81571H108.774V3.19286H109.755V8.81571H109.754ZM109.271 1.83429C109.068 1.83429 108.908 1.77214 108.787 1.64714C108.665 1.52214 108.605 1.35786 108.605 1.155C108.605 0.96 108.665 0.8 108.787 0.675C108.908 0.55 109.068 0.487143 109.271 0.487143C109.464 0.487143 109.621 0.55 109.743 0.675C109.863 0.8 109.924 0.96 109.924 1.155C109.924 1.35786 109.863 1.52214 109.742 1.64714C109.682 1.70911 109.609 1.75786 109.527 1.79013C109.446 1.82241 109.359 1.83746 109.271 1.83429ZM115.322 8.81571H114.426V8.18286H114.403C114.283 8.36751 114.124 8.52532 113.937 8.64571C113.811 8.72786 113.66 8.8 113.482 8.86214C113.305 8.925 113.107 8.95643 112.89 8.95643C112.631 8.95643 112.399 8.91928 112.194 8.845C111.989 8.77175 111.808 8.64874 111.667 8.48786C111.522 8.32357 111.41 8.11071 111.334 7.84928C111.258 7.58786 111.219 7.26571 111.219 6.88286V3.19286H112.199V6.81286C112.199 7.28143 112.278 7.615 112.436 7.81428C112.593 8.01286 112.837 8.11286 113.168 8.11286C113.451 8.11286 113.688 8.04428 113.882 7.90786C114.076 7.77143 114.229 7.63643 114.342 7.50357V3.19286H115.322V8.81571ZM119.873 8.81571V5.19643C119.873 4.735 119.805 4.40357 119.667 4.20071C119.53 3.99714 119.309 3.89571 119.002 3.89571C118.732 3.89151 118.468 3.9627 118.239 4.10071C118.147 4.1555 118.062 4.2202 117.985 4.29357C117.912 4.365 117.853 4.42714 117.804 4.48143V8.81571H116.823V3.19286H117.719V3.82571H117.743C117.783 3.76286 117.844 3.68714 117.925 3.59714C118.122 3.38556 118.372 3.22624 118.651 3.13428C118.812 3.08 118.994 3.05286 119.196 3.05286C119.857 3.05286 120.325 3.30286 120.6 3.80286C120.751 3.60056 120.945 3.43101 121.168 3.305C121.461 3.13619 121.796 3.04893 122.136 3.05286C123.315 3.05286 123.904 3.71643 123.904 5.04357V8.815H122.923V5.19714C122.923 4.73571 122.839 4.40428 122.669 4.20143C122.5 3.99786 122.25 3.89643 121.919 3.89643C121.645 3.89643 121.417 3.96071 121.235 4.08928C121.054 4.21857 120.91 4.34143 120.806 4.45857C120.821 4.54428 120.834 4.63714 120.842 4.73428C120.849 4.83143 120.854 4.935 120.854 5.04428V8.81571H119.873ZM43.6304 15.7779H42.4443V20.6279H41.4641V15.7779H40.7622V15.1457L41.4641 15.0171V13.8921C41.4641 13.5879 41.5084 13.3257 41.597 13.1071C41.6855 12.8886 41.8036 12.7093 41.9483 12.5686C42.0907 12.4298 42.2649 12.3256 42.4568 12.2643C42.6502 12.2014 42.8554 12.17 43.0739 12.17C43.2835 12.17 43.4614 12.1979 43.6068 12.2521C43.7514 12.3071 43.8489 12.35 43.8969 12.3807L43.6909 13.1664C43.626 13.1269 43.5573 13.0934 43.4857 13.0664C43.3813 13.0286 43.2703 13.0106 43.1588 13.0136C42.9248 13.0136 42.7469 13.0843 42.6259 13.2243C42.5048 13.365 42.4443 13.6229 42.4443 13.9979V15.005H43.7515L43.6304 15.7779ZM48.6657 20.6279H47.7711V19.995H47.7468C47.6274 20.1796 47.4686 20.3375 47.281 20.4579C47.1555 20.5393 47.0042 20.6114 46.8271 20.6743C46.65 20.7364 46.4514 20.7679 46.2337 20.7679C45.9753 20.7679 45.7436 20.7307 45.5376 20.6564C45.3334 20.5832 45.1521 20.4602 45.0114 20.2993C44.866 20.135 44.7553 19.9229 44.6785 19.6607C44.6017 19.3993 44.5634 19.0771 44.5634 18.6943V15.005H45.5435V18.6243C45.5435 19.0929 45.6225 19.4264 45.7797 19.6257C45.937 19.825 46.1813 19.9243 46.5119 19.9243C46.7946 19.9243 47.0323 19.8564 47.2264 19.7193C47.4198 19.5829 47.5733 19.4479 47.6862 19.3157V15.005H48.6664V20.6271L48.6657 20.6279ZM46.258 13.3879C46.258 13.5671 46.2012 13.7121 46.0883 13.8214C46.035 13.8745 45.971 13.9165 45.9003 13.9447C45.8296 13.973 45.7536 13.9869 45.6771 13.9857C45.6005 13.987 45.5245 13.9731 45.4536 13.9449C45.3828 13.9166 45.3187 13.8746 45.2653 13.8214C45.1524 13.7121 45.0955 13.5671 45.0955 13.3879C45.0955 13.2079 45.1524 13.0636 45.2653 12.9543C45.3187 12.9011 45.3828 12.8591 45.4536 12.8308C45.5245 12.8026 45.6005 12.7887 45.6771 12.79C45.838 12.79 45.9753 12.845 46.0883 12.9543C46.2012 13.0636 46.258 13.2079 46.258 13.3879ZM48.1217 13.3879C48.1217 13.5671 48.0656 13.7121 47.952 13.8214C47.8986 13.8745 47.8347 13.9165 47.764 13.9447C47.6933 13.973 47.6173 13.9869 47.5408 13.9857C47.4643 13.9869 47.3884 13.973 47.3177 13.9447C47.247 13.9165 47.183 13.8745 47.1297 13.8214C47.016 13.7121 46.96 13.5671 46.96 13.3879C46.96 13.2079 47.016 13.0636 47.1297 12.9543C47.183 12.9012 47.247 12.8592 47.3177 12.831C47.3884 12.8027 47.4643 12.7888 47.5408 12.79C47.7025 12.79 47.8398 12.845 47.9527 12.9543C48.0656 13.0636 48.1217 13.2079 48.1217 13.3879ZM52.7215 15.8357C52.6717 15.8101 52.619 15.7905 52.5643 15.7771C52.4575 15.7507 52.3475 15.7389 52.2373 15.7421C51.9303 15.7421 51.6911 15.8221 51.517 15.9821C51.3546 16.1265 51.2284 16.3049 51.1479 16.5036V20.6264H50.1677V15.0043H51.063V15.7657H51.0874C51.128 15.6564 51.1804 15.5486 51.2446 15.4436C51.3095 15.3379 51.39 15.2443 51.4867 15.1621C51.5834 15.08 51.6985 15.0157 51.8314 14.9693C51.9854 14.9191 52.1472 14.8951 52.3097 14.8986C52.4469 14.8986 52.5577 14.9107 52.6426 14.9343C52.7274 14.9571 52.7939 14.9771 52.8418 14.9921L52.7215 15.8357ZM60.5645 14.6057C60.5645 14.8871 60.5284 15.1329 60.456 15.3436C60.383 15.555 60.284 15.7364 60.1593 15.8886C60.0338 16.0407 59.8892 16.1636 59.7238 16.2579C59.5578 16.3507 59.3865 16.4221 59.2094 16.4686V16.4921C59.4271 16.5307 59.6301 16.605 59.8205 16.7143C60.2108 16.9386 60.5065 17.2893 60.6553 17.7043C60.7402 17.9264 60.7823 18.1707 60.7823 18.4364C60.786 18.7372 60.7283 19.0358 60.6125 19.315C60.5003 19.58 60.3246 19.8107 60.0862 20.0057C59.8486 20.2007 59.5474 20.3536 59.185 20.4629C58.8219 20.5721 58.3901 20.6271 57.8897 20.6271H56.1832V12.5443H57.7922C58.2853 12.5443 58.7067 12.5936 59.0581 12.6907C59.4087 12.7886 59.6973 12.9264 59.9231 13.1064C60.149 13.2864 60.3128 13.5029 60.4132 13.7564C60.5143 14.0107 60.5645 14.2929 60.5645 14.6057ZM59.4995 14.6414C59.4995 14.2664 59.3622 13.9579 59.0883 13.7157C58.8138 13.4736 58.382 13.3529 57.793 13.3529H57.2365V16.1407H57.7804C58.3458 16.1407 58.7732 16.0079 59.064 15.7421C59.354 15.4764 59.4995 15.1093 59.4995 14.6414ZM59.6567 18.3657C59.6567 17.9286 59.509 17.5829 59.2153 17.3293C58.9201 17.0757 58.4993 16.9486 57.9502 16.9486H57.2365V19.7836H57.8897C58.5111 19.7836 58.9606 19.6643 59.2396 19.4264C59.5179 19.1879 59.6567 18.8343 59.6567 18.3657ZM63.0578 20.6264H62.0776V15.0043H63.0578V20.6264ZM62.5736 13.6457C62.3721 13.6457 62.2105 13.5829 62.0894 13.4579C61.9684 13.3329 61.9079 13.1693 61.9079 12.9664C61.9079 12.7707 61.9684 12.6107 62.0894 12.4857C62.2105 12.3607 62.3721 12.2986 62.5736 12.2986C62.7677 12.2986 62.9249 12.3607 63.046 12.4857C63.167 12.6107 63.2276 12.7714 63.2276 12.9664C63.2276 13.1693 63.167 13.3329 63.046 13.4579C62.9856 13.5199 62.9123 13.5688 62.8308 13.6012C62.7493 13.6336 62.6616 13.6488 62.5736 13.6457ZM65.5275 19.315C65.5275 19.5493 65.5614 19.7129 65.6308 19.8064C65.6987 19.9007 65.8175 19.9471 65.9873 19.9471C66.0759 19.9471 66.1504 19.94 66.211 19.9236C66.2715 19.9079 66.318 19.8929 66.3504 19.8771L66.4353 20.58C66.3488 20.6168 66.2598 20.6478 66.1689 20.6729C65.9993 20.7171 65.824 20.737 65.6485 20.7321C65.3171 20.7321 65.0507 20.6343 64.8492 20.4393C64.6477 20.2443 64.5465 19.8964 64.5465 19.3964V12.345L65.5275 12.24V19.315ZM67.0524 17.8971C67.0524 17.3271 67.1291 16.8507 67.2819 16.4686C67.4355 16.0857 67.6333 15.7771 67.8754 15.5429C68.1175 15.3086 68.392 15.1429 68.6983 15.045C68.9949 14.949 69.3053 14.8996 69.618 14.8986C69.804 14.8986 69.9649 14.9129 70.1022 14.94C70.2395 14.9671 70.3531 15 70.4417 15.04V12.345L71.4219 12.24V20.6264H70.5259V20.0293H70.5022C70.4038 20.2023 70.2672 20.3523 70.1022 20.4686C69.9726 20.5588 69.8298 20.6298 69.6785 20.6793C69.5088 20.7379 69.3117 20.7671 69.0858 20.7671C68.8113 20.7671 68.5515 20.7143 68.3049 20.6093C68.049 20.4961 67.8265 20.3228 67.6576 20.105C67.4716 19.875 67.3247 19.5786 67.2155 19.215C67.107 18.8521 67.0524 18.4129 67.0524 17.8971ZM69.3523 19.9236C69.5297 19.927 69.706 19.8944 69.8696 19.8278C70.0332 19.7613 70.1806 19.6622 70.3022 19.5371C70.3627 19.475 70.4092 19.42 70.4417 19.3729V15.9071C70.3447 15.8487 70.2409 15.8015 70.1325 15.7664C69.9896 15.7238 69.8405 15.704 69.6911 15.7079C69.4652 15.7079 69.2534 15.745 69.0556 15.8193C68.8578 15.8929 68.6865 16.0164 68.5411 16.1879C68.3957 16.3593 68.2806 16.5821 68.1964 16.8557C68.1115 17.1293 68.0687 17.465 68.0687 17.8629C68.0687 18.2536 68.1034 18.5793 68.1721 18.8414C68.2407 19.1029 68.3352 19.3129 68.4562 19.4736C68.5773 19.6336 68.7146 19.7486 68.8681 19.8193C69.0209 19.8893 69.1825 19.9236 69.3523 19.9236ZM76.9894 20.6264H76.094V19.9943H76.0697C75.9503 20.1789 75.7915 20.3367 75.604 20.4571C75.4785 20.5386 75.3272 20.6107 75.15 20.6736C74.9729 20.7357 74.7743 20.7671 74.5566 20.7671C74.2983 20.7671 74.0665 20.73 73.8606 20.6557C73.6563 20.5825 73.4751 20.4594 73.3343 20.2986C73.1889 20.1343 73.0782 19.9221 73.0014 19.66C72.9247 19.3986 72.8863 19.0764 72.8863 18.6936V15.0043H73.8665V18.6236C73.8665 19.0921 73.9454 19.4257 74.1027 19.625C74.2599 19.8243 74.5042 19.9236 74.8349 19.9236C75.1175 19.9236 75.3552 19.8557 75.5493 19.7186C75.7427 19.5821 75.8962 19.4471 76.0092 19.315V15.0043H76.9894V20.6264ZM81.6615 20.6264V17.0071C81.6615 16.5307 81.5788 16.1893 81.4135 15.9821C81.2482 15.775 80.9957 15.6721 80.657 15.6721C80.3661 15.6721 80.1241 15.7421 79.9307 15.8829C79.7373 16.0236 79.5838 16.16 79.4708 16.2929V20.6264H78.4906V15.0043H79.386V15.6364H79.4103C79.53 15.4499 79.6914 15.2917 79.8827 15.1736C80.0269 15.0845 80.1812 15.0119 80.3425 14.9571C80.5197 14.895 80.7219 14.8643 80.9478 14.8643C81.2061 14.8643 81.4393 14.9007 81.6489 14.975C81.8593 15.0493 82.0365 15.1679 82.1819 15.3321C82.3273 15.4964 82.4402 15.7093 82.5214 15.9707C82.6018 16.2321 82.6417 16.5543 82.6417 16.9371V20.6264H81.6615ZM88.2704 15.7421H87.5441C87.7294 16.0386 87.8224 16.375 87.8224 16.7493C87.8224 17.0464 87.7722 17.3136 87.6711 17.5521C87.5769 17.7806 87.4323 17.9863 87.2474 18.155C87.0658 18.3193 86.8518 18.4443 86.606 18.53C86.3602 18.6157 86.096 18.6586 85.8133 18.6586H85.6561C85.6035 18.6583 85.5509 18.6545 85.4989 18.6471C85.3887 18.6942 85.2867 18.7573 85.1962 18.8343C85.1449 18.8755 85.1039 18.9276 85.0765 18.9866C85.0492 19.0455 85.0361 19.1097 85.0383 19.1743C85.0383 19.2914 85.0848 19.3871 85.1778 19.4614C85.2708 19.535 85.4214 19.5721 85.6317 19.5721H86.3698C86.6264 19.5703 86.8824 19.5978 87.1323 19.6543C87.3662 19.7093 87.57 19.7971 87.7441 19.9186C87.9176 20.0393 88.0527 20.1936 88.1494 20.3807C88.246 20.5679 88.2948 20.795 88.2948 21.06C88.2948 21.3643 88.2283 21.6414 88.0955 21.8914C87.9619 22.1414 87.7737 22.3557 87.5323 22.5357C87.2663 22.7268 86.9667 22.8695 86.6481 22.9571C86.2707 23.0629 85.8792 23.1144 85.4863 23.11C84.8648 23.11 84.3932 22.9793 84.0699 22.7171C83.7474 22.4557 83.5864 22.0793 83.5864 21.5871C83.5864 21.3764 83.6241 21.1943 83.7009 21.0421C83.7776 20.89 83.8684 20.7571 83.974 20.6443C84.078 20.5307 84.185 20.4414 84.2943 20.375L84.5541 20.2164V20.1936C84.3046 20.0136 84.1791 19.7521 84.1791 19.4079C84.1791 19.26 84.2094 19.1314 84.2699 19.0221C84.3305 18.9129 84.3991 18.8221 84.4759 18.7521C84.5526 18.6821 84.6294 18.6257 84.7054 18.5829C84.7619 18.5499 84.8206 18.5205 84.8811 18.495V18.4714C84.5815 18.3375 84.3307 18.1192 84.1614 17.845C83.9799 17.5593 83.8883 17.195 83.8883 16.7493C83.8883 16.4371 83.9415 16.1621 84.0463 15.9236C84.1415 15.699 84.286 15.4972 84.4699 15.3321C84.6471 15.1757 84.8552 15.0586 85.0929 14.9807C85.3313 14.9021 85.5874 14.8636 85.8613 14.8636C86.1265 14.8619 86.3897 14.9097 86.6363 15.0043H88.4033L88.2704 15.7421ZM85.5712 20.4507C85.4014 20.4507 85.2523 20.4393 85.1232 20.4157C85.0508 20.455 84.98 20.5014 84.9113 20.5564C84.8427 20.6107 84.78 20.6779 84.7239 20.7557C84.6678 20.8336 84.6205 20.925 84.5844 21.0307C84.5482 21.1364 84.5305 21.2593 84.5305 21.4C84.5305 22.0007 84.873 22.3014 85.5594 22.3014C86.1484 22.3014 86.5839 22.1907 86.8658 21.9679C87.1485 21.745 87.2902 21.4893 87.2902 21.2007C87.2902 20.9271 87.2016 20.7343 87.0238 20.6207C86.8466 20.5079 86.6082 20.4507 86.3093 20.4507H85.5712ZM86.8666 16.7493C86.8666 16.3436 86.7676 16.0543 86.5698 15.8829C86.3803 15.7141 86.1313 15.6218 85.8738 15.625C85.5911 15.625 85.3498 15.7107 85.1475 15.8821C84.946 16.0543 84.8449 16.3436 84.8449 16.7493C84.8449 17.1557 84.946 17.4443 85.1475 17.6164C85.349 17.7879 85.583 17.8736 85.8495 17.8736C86.1321 17.8736 86.372 17.7879 86.5698 17.6164C86.7676 17.445 86.8666 17.1557 86.8666 16.7493ZM45.2527 32.4386H44.3574V31.8057H44.3331C44.2137 31.9904 44.0549 32.1482 43.8673 32.2686C43.7419 32.3507 43.5913 32.4229 43.4134 32.485C43.2363 32.5479 43.0385 32.5793 42.8207 32.5793C42.5624 32.5793 42.3306 32.5421 42.1247 32.4679C41.9202 32.3947 41.7386 32.2717 41.5977 32.1107C41.453 31.9464 41.3416 31.7336 41.2655 31.4721C41.1888 31.2107 41.1504 30.8886 41.1504 30.5057V26.8157H42.1306V30.4357C42.1306 30.9043 42.2096 31.2379 42.3668 31.4371C42.524 31.6357 42.7683 31.7357 43.099 31.7357C43.3817 31.7357 43.6193 31.6671 43.8127 31.5307C44.0068 31.3943 44.1596 31.2593 44.2733 31.1264V26.8157H45.2535L45.2527 32.4386ZM49.9249 32.4386V28.8193C49.9249 28.3429 49.8429 28.0007 49.6776 27.7943C49.5115 27.5871 49.2599 27.4836 48.9211 27.4836C48.6303 27.4836 48.3882 27.5543 48.1948 27.6943C48.0007 27.835 47.8479 27.9714 47.735 28.1043V32.4386H46.754V26.8157H47.6501V27.4486H47.6744C47.7941 27.262 47.9555 27.1038 48.1468 26.9857C48.2907 26.8967 48.4448 26.8241 48.6059 26.7693C48.783 26.7064 48.9853 26.6757 49.2111 26.6757C49.4695 26.6757 49.7034 26.7129 49.9131 26.7864C50.1234 26.8607 50.3006 26.98 50.446 27.1436C50.5914 27.3079 50.7043 27.5207 50.7848 27.7821C50.866 28.0443 50.9058 28.3664 50.9058 28.7486V32.4386H49.9249ZM52.1037 29.7093C52.1037 29.1393 52.1805 28.6629 52.334 28.2807C52.4875 27.8979 52.6854 27.5893 52.9275 27.355C53.1695 27.1207 53.4441 26.955 53.7504 26.8571C54.0469 26.7612 54.3574 26.7117 54.6701 26.7107C54.8554 26.7107 55.017 26.7243 55.1543 26.7514C55.2916 26.7786 55.4045 26.8121 55.4938 26.8514V24.1571L56.4733 24.0514V32.4386H55.5779V31.8407H55.5536C55.4554 32.0137 55.3191 32.1637 55.1543 32.28C55.0247 32.3705 54.8819 32.4418 54.7306 32.4914C54.5609 32.55 54.3638 32.5793 54.1372 32.5793C53.8634 32.5793 53.6028 32.5264 53.357 32.4207C53.1009 32.3079 52.8781 32.1347 52.709 31.9171C52.5237 31.6871 52.3768 31.39 52.2676 31.0271C52.1584 30.6636 52.1037 30.2243 52.1037 29.7093ZM54.4036 31.7357C54.5811 31.7391 54.7573 31.7065 54.9209 31.64C55.0846 31.5734 55.2319 31.4744 55.3536 31.3493C55.4148 31.2864 55.4606 31.2321 55.4938 31.185V27.7179C55.3968 27.6594 55.293 27.6122 55.1846 27.5771C55.0415 27.5344 54.8921 27.5146 54.7424 27.5186C54.5166 27.5186 54.3047 27.5557 54.1077 27.63C53.9099 27.7043 53.7386 27.8271 53.5932 27.9993C53.4478 28.1707 53.3327 28.3936 53.2478 28.6664C53.1629 28.94 53.1208 29.2757 53.1208 29.6736C53.1208 30.0643 53.1548 30.3907 53.2242 30.6521C53.2921 30.9136 53.3865 31.1243 53.5083 31.2843C53.6294 31.445 53.7667 31.56 53.9194 31.63C54.073 31.7007 54.2346 31.7357 54.4036 31.7357ZM60.7461 32.4386V24.3571H64.8499L64.7761 25.165H61.7994V28.1521H64.5465V28.96H61.7994V32.4386H60.7461ZM65.588 29.6271C65.588 29.1121 65.65 28.6664 65.7755 28.2914C65.901 27.9171 66.07 27.6107 66.284 27.3721C66.4981 27.1343 66.7439 26.9586 67.0221 26.845C67.3038 26.7314 67.6063 26.6738 67.9115 26.6757C68.2341 26.6757 68.533 26.7321 68.8076 26.845C69.0814 26.9586 69.3198 27.1343 69.5213 27.3721C69.7228 27.6107 69.883 27.9171 69.9996 28.2921C70.117 28.6664 70.1753 29.1121 70.1753 29.6279C70.1753 30.1507 70.1147 30.5993 69.9937 30.9743C69.8726 31.3493 69.7051 31.6557 69.4918 31.8936C69.2777 32.1321 69.029 32.3057 68.7463 32.415C68.4644 32.5243 68.1662 32.5793 67.851 32.5793C67.5285 32.5793 67.2295 32.5243 66.9557 32.415C66.6761 32.302 66.4304 32.1226 66.2412 31.8936C66.0397 31.6557 65.8803 31.3507 65.7629 30.98C65.6463 30.6086 65.588 30.1586 65.588 29.6271ZM69.1582 29.6271C69.1582 28.8771 69.0452 28.3329 68.8194 27.9936C68.5935 27.6536 68.2791 27.4836 67.8754 27.4836C67.4716 27.4836 67.1594 27.6536 66.938 27.9936C66.7151 28.3329 66.6044 28.8779 66.6044 29.6271C66.6044 30.3771 66.7173 30.9157 66.9439 31.2436C67.169 31.5721 67.4842 31.7357 67.8872 31.7357C68.2909 31.7357 68.6031 31.5714 68.8253 31.2436C69.0467 30.9157 69.1582 30.3771 69.1582 29.6271ZM73.9632 27.6479C73.9134 27.6223 73.8606 27.6026 73.806 27.5893C73.6995 27.5627 73.5897 27.5507 73.4797 27.5536C73.1727 27.5536 72.9328 27.6343 72.7593 27.7943C72.597 27.9387 72.4707 28.117 72.3903 28.3157V32.4386H71.4094V26.8157H72.3054V27.5771H72.3298C72.3696 27.4679 72.422 27.3607 72.487 27.2557C72.5512 27.15 72.6324 27.0557 72.7291 26.9743C72.8258 26.8921 72.9409 26.8279 73.0738 26.7814C73.2277 26.731 73.3895 26.7068 73.552 26.71C73.6893 26.71 73.8 26.7221 73.8849 26.7457C73.9698 26.7693 74.0362 26.7886 74.0842 26.8043L73.9639 27.6471L73.9632 27.6479ZM77.3887 27.9521C77.2813 27.8461 77.1639 27.75 77.0381 27.665C76.8683 27.5436 76.6469 27.4836 76.3723 27.4836C76.114 27.4836 75.9162 27.5421 75.7789 27.6593C75.7145 27.7104 75.6627 27.7747 75.6272 27.8476C75.5917 27.9205 75.5734 28.0001 75.5737 28.0807C75.5737 28.2921 75.6357 28.4657 75.7612 28.6021C75.8867 28.7393 76.0778 28.885 76.3361 29.0414L76.6993 29.2521C77.0942 29.4786 77.4049 29.7229 77.6308 29.9843C77.8566 30.2457 77.9703 30.5843 77.9703 30.9979C77.9703 31.4429 77.8109 31.8179 77.492 32.1221C77.1731 32.4264 76.7155 32.5793 76.1184 32.5793C75.8837 32.5793 75.6785 32.5557 75.5006 32.5086C75.3405 32.4678 75.1846 32.4128 75.0349 32.3443C74.9153 32.2904 74.8034 32.2217 74.702 32.14C74.6134 32.0657 74.5404 31.9971 74.4843 31.935L74.9566 31.185C75.0046 31.2321 75.0629 31.2864 75.1316 31.3493C75.2971 31.4967 75.4931 31.6085 75.7066 31.6771C75.8276 31.7164 75.9686 31.7357 76.1302 31.7357C76.4203 31.7357 76.6425 31.6728 76.796 31.5478C76.8678 31.4937 76.9258 31.4243 76.9656 31.3451C77.0054 31.2658 77.0259 31.1788 77.0255 31.0907C77.0281 30.9736 77.0099 30.8569 76.9716 30.7457C76.9354 30.6483 76.8797 30.5588 76.8078 30.4821C76.7284 30.3984 76.6392 30.3239 76.5421 30.26C76.4223 30.1801 76.3012 30.102 76.1789 30.0257L75.8158 29.8029C75.4526 29.5764 75.1677 29.3386 74.9625 29.0886C74.7559 28.8386 74.6533 28.5186 74.6533 28.1279C74.6533 27.9171 74.6961 27.7236 74.781 27.5479C74.8651 27.3728 74.9866 27.217 75.1375 27.0907C75.291 26.9621 75.4704 26.8607 75.6763 26.7864C75.8876 26.7115 76.1111 26.674 76.3361 26.6757C76.5319 26.6722 76.7272 26.6938 76.917 26.74C77.1792 26.8059 77.4219 26.9301 77.6256 27.1028C77.7016 27.1693 77.7644 27.2257 77.8123 27.2729L77.3887 27.9521ZM82.3516 27.905C82.3139 27.8693 82.2755 27.8343 82.2365 27.8C82.1751 27.7467 82.1083 27.6996 82.0372 27.6593C81.9454 27.6077 81.8478 27.5665 81.7464 27.5364C81.6208 27.4995 81.4901 27.4816 81.3589 27.4836C81.1493 27.4836 80.9529 27.5207 80.7721 27.595C80.5905 27.6693 80.4326 27.7879 80.2997 27.9521C80.1669 28.1164 80.062 28.3293 79.9853 28.5907C79.9085 28.8521 79.8701 29.1707 79.8701 29.545C79.8701 29.9593 79.9048 30.3064 79.9735 30.5879C80.0414 30.8686 80.1359 31.0936 80.2576 31.2614C80.3787 31.4293 80.5256 31.55 80.6998 31.6243C80.8725 31.6986 81.0644 31.7357 81.274 31.7357C81.5729 31.7357 81.801 31.685 81.9582 31.5836C82.1154 31.4821 82.2262 31.4 82.2904 31.3371L82.6904 31.9936C82.636 32.0539 82.5773 32.1104 82.5147 32.1628C82.4241 32.2385 82.3245 32.3035 82.218 32.3564C82.0779 32.4257 81.9297 32.4787 81.7766 32.5143C81.6032 32.5571 81.4032 32.5786 81.1773 32.5786C80.8548 32.5786 80.5521 32.5286 80.2695 32.4264C79.9831 32.3222 79.729 32.1488 79.5314 31.9229C79.3217 31.6886 79.1564 31.3843 79.0354 31.0093C78.9143 30.6343 78.8538 30.17 78.8538 29.6157C78.8538 29.0764 78.9261 28.62 79.0715 28.245C79.2169 27.87 79.4059 27.5679 79.6399 27.3379C79.8746 27.1071 80.1344 26.9393 80.4208 26.8336C80.6969 26.7301 80.9904 26.6766 81.2866 26.6757C81.5043 26.6757 81.6962 26.695 81.8615 26.7343C82.0269 26.7729 82.1678 26.8221 82.2852 26.8807C82.4018 26.9393 82.4992 27.0014 82.5753 27.0679C82.652 27.1343 82.7148 27.1907 82.7627 27.2379L82.3516 27.905ZM86.9632 32.4386V28.8193C86.9632 28.3429 86.8806 28.0007 86.7152 27.7943C86.5492 27.5871 86.2975 27.4836 85.9587 27.4836C85.6679 27.4836 85.4258 27.5543 85.2324 27.6943C85.0383 27.835 84.8855 27.9714 84.7726 28.1043V32.4386H83.7916V24.1571L84.7726 24.0514V27.39H84.7962C84.8287 27.3429 84.8789 27.2807 84.9475 27.2029C85.0161 27.1243 85.1114 27.0457 85.2324 26.9686C85.545 26.7706 85.9121 26.6685 86.2857 26.6757C86.7935 26.6757 87.1972 26.8357 87.4961 27.1557C87.7943 27.4757 87.9434 28.0071 87.9434 28.7486V32.4386H86.9632ZM93.4747 32.4386H92.5794V31.8057H92.555C92.4357 31.9904 92.2769 32.1482 92.0893 32.2686C91.9638 32.3507 91.8125 32.4229 91.6354 32.485C91.4582 32.5479 91.2597 32.5793 91.042 32.5793C90.7836 32.5793 90.5519 32.5421 90.3459 32.4679C90.1417 32.3946 89.9604 32.2716 89.8197 32.1107C89.6743 31.9464 89.5636 31.7336 89.4868 31.4721C89.41 31.2107 89.3717 30.8886 89.3717 30.5057V26.8157H90.3518V30.4357C90.3518 30.9043 90.4308 31.2379 90.588 31.4371C90.7452 31.6357 90.9896 31.7357 91.3202 31.7357C91.6029 31.7357 91.8406 31.6671 92.0347 31.5307C92.2281 31.3943 92.3816 31.2593 92.4945 31.1264V26.8157H93.4747V32.4386ZM98.1469 32.4386V28.8193C98.1469 28.3429 98.0642 28.0007 97.8988 27.7943C97.7335 27.5871 97.4811 27.4836 97.1423 27.4836C96.8522 27.4836 96.6101 27.5543 96.416 27.6943C96.2226 27.835 96.0691 27.9714 95.9562 28.1043V32.4386H94.976V26.8157H95.8713V27.4486H95.8957C96.0153 27.262 96.1768 27.1038 96.368 26.9857C96.5122 26.8967 96.6665 26.8241 96.8279 26.7693C97.005 26.7064 97.2073 26.6757 97.4331 26.6757C97.6915 26.6757 97.9247 26.7129 98.1343 26.7864C98.3447 26.8607 98.5225 26.98 98.6672 27.1436C98.8126 27.3079 98.9256 27.5207 99.0067 27.7821C99.0872 28.0443 99.127 28.3664 99.127 28.7486V32.4386H98.1469ZM104.756 27.5543H104.029C104.215 27.8507 104.308 28.1864 104.308 28.5614C104.308 28.8579 104.258 29.1257 104.156 29.3636C104.062 29.5922 103.918 29.7982 103.733 29.9671C103.551 30.1314 103.337 30.2557 103.091 30.3414C102.846 30.4271 102.581 30.47 102.299 30.47H102.141C102.089 30.4698 102.036 30.4659 101.984 30.4586C101.874 30.5059 101.772 30.5692 101.682 30.6464C101.63 30.6876 101.589 30.7396 101.562 30.7984C101.535 30.8572 101.522 30.9213 101.524 30.9857C101.524 31.1029 101.57 31.1986 101.664 31.2729C101.756 31.3471 101.907 31.3843 102.117 31.3843H102.855C103.112 31.3824 103.368 31.41 103.618 31.4664C103.852 31.5207 104.056 31.6093 104.229 31.73C104.403 31.8514 104.538 32.005 104.635 32.1921C104.731 32.38 104.78 32.6064 104.78 32.8721C104.78 33.1764 104.714 33.4536 104.581 33.7036C104.447 33.9536 104.26 34.1679 104.018 34.3479C103.752 34.5389 103.452 34.6817 103.133 34.7693C102.756 34.8748 102.365 34.9261 101.972 34.9214C101.35 34.9214 100.879 34.7907 100.556 34.5293C100.233 34.2678 100.072 33.8907 100.072 33.3986C100.072 33.1879 100.11 33.0064 100.186 32.8543C100.263 32.7021 100.354 32.5686 100.459 32.4557C100.563 32.3428 100.67 32.2529 100.78 32.1864L101.039 32.0286V32.005C100.79 31.8257 100.665 31.5636 100.665 31.22C100.665 31.0721 100.695 30.9429 100.755 30.8343C100.816 30.7243 100.884 30.6343 100.961 30.5643C101.038 30.4943 101.115 30.4371 101.191 30.3943C101.248 30.3613 101.306 30.332 101.366 30.3064V30.2829C101.067 30.1489 100.816 29.9306 100.647 29.6564C100.465 29.3714 100.374 29.0064 100.374 28.5614C100.374 28.2493 100.427 27.9736 100.532 27.7357C100.627 27.5111 100.771 27.3093 100.955 27.1443C101.132 26.9871 101.341 26.8707 101.578 26.7929C101.817 26.7143 102.073 26.6757 102.347 26.6757C102.613 26.6738 102.876 26.7213 103.122 26.8157H104.889L104.756 27.5543ZM102.057 32.2629C101.887 32.2629 101.738 32.2507 101.609 32.2271C101.536 32.2664 101.465 32.3129 101.397 32.3678C101.328 32.4228 101.266 32.4893 101.209 32.5679C101.153 32.645 101.106 32.7371 101.07 32.8428C101.034 32.9478 101.016 33.0714 101.016 33.2114C101.016 33.8129 101.358 34.1136 102.045 34.1136C102.634 34.1136 103.069 34.0021 103.351 33.78C103.634 33.5571 103.776 33.3014 103.776 33.0121C103.776 32.7393 103.687 32.5457 103.509 32.4328C103.332 32.3193 103.094 32.2629 102.795 32.2629H102.057ZM103.352 28.5614C103.352 28.155 103.253 27.8664 103.055 27.6943C102.866 27.5258 102.617 27.4338 102.359 27.4371C102.076 27.4371 101.835 27.5229 101.633 27.6943C101.431 27.8657 101.33 28.155 101.33 28.5614C101.33 28.9671 101.431 29.2564 101.633 29.4279C101.834 29.5993 102.068 29.6857 102.335 29.6857C102.618 29.6857 102.857 29.6 103.055 29.4286C103.253 29.2564 103.352 28.9671 103.352 28.5614ZM14.6749 8.16428C14.703 7.94428 14.7192 7.71714 14.7192 7.485C14.7192 7.35786 14.7199 7.21 14.7037 7.04214C16.7305 7.015 18.5086 5.60143 18.5086 3.97643C18.5086 3.15 17.9513 2.52643 17.6376 2.15286C17.707 2.13857 17.7779 2.12214 17.851 2.10571C18.1477 2.35571 18.9898 3.24357 18.9898 4.36428C18.9898 6.31428 16.9763 8.12428 14.6749 8.16428ZM12.6326 1.37429C12.5977 1.16297 12.5109 0.962843 12.3794 0.790714C12.3868 0.591428 12.471 0.401429 12.8016 0.557857C12.623 0.735 12.761 1.04929 12.761 1.04929C12.761 1.04929 13.1271 0.885 13.0511 0.650714C13.5944 0.776428 13.2032 1.48214 12.6326 1.37429ZM12.1617 2.375C12.0857 2.07585 11.9412 1.79708 11.7388 1.55929C11.5594 1.35429 11.2634 1.11143 10.8649 1.11143C10.6833 1.11143 10.3777 1.19429 10.1836 1.27357C10.1113 1.14571 9.96957 0.837857 9.96957 0.698571C9.96957 0.555714 10.219 0.411428 10.6966 0.411428C11.7462 0.411428 12.3721 0.87 12.3721 1.64C12.3721 1.91071 12.2614 2.15571 12.1617 2.375ZM14.8572 15.4664C14.9436 15.464 15.0296 15.4791 15.1097 15.5107C15.4123 16.3064 16.5763 17.8071 16.625 17.8714L16.6353 17.885L16.6523 17.8814C16.9387 17.8371 17.6679 17.7307 18.2776 17.7307H18.2923C18.3588 17.7307 18.4333 17.7307 18.4813 17.7757C18.5211 17.8143 18.5403 17.8814 18.5403 17.9764C18.5403 18.1236 18.4761 18.3743 18.3986 18.4814C18.1853 18.2564 17.8384 18.155 17.2834 18.155C17.1165 18.155 16.9187 18.2029 16.8125 18.2307L16.7682 18.2393L16.7187 18.2521L17.039 18.5621C17.5336 19.0407 17.9602 19.4529 17.9602 19.7279C17.9602 19.8929 17.7934 20.1086 17.6413 20.2043C17.6074 19.7014 17.0826 19.0279 16.5711 18.6507L16.5268 18.6193L16.5194 18.7964C16.512 18.9164 16.501 19.0964 16.501 19.2893C16.501 20.2471 16.4006 20.3929 16.0581 20.3929C15.9955 20.3911 15.9336 20.3803 15.8743 20.3607C16.0677 20.1293 16.1437 19.8243 16.1437 19.2893L16.1408 19.0414L16.1378 18.8429C16.1378 18.6236 16.1614 18.4607 16.1799 18.33L16.1895 18.2564L16.1356 18.2493C15.9083 18.2151 15.6791 18.1945 15.4492 18.1879C14.9598 18.1879 14.6284 18.2314 14.3885 18.45C14.2299 18.3257 14.0667 18.1121 14.0667 17.9779C14.0667 17.7779 14.1952 17.7621 14.3642 17.7621C14.4491 17.7621 14.5288 17.7736 14.6388 17.7864C14.8491 17.8171 15.1658 17.8621 15.8175 17.8621H15.8581L15.8448 17.8243C15.6802 17.3664 15.2263 16.7007 14.4993 15.8457C14.5642 15.6164 14.6284 15.4664 14.8572 15.4664ZM8.57752 17.8243L8.56423 17.8621H8.60483C9.25583 17.8621 9.57321 17.8171 9.78357 17.7864C9.89428 17.7736 9.97326 17.7621 10.0581 17.7621C10.2264 17.7621 10.3556 17.7779 10.3556 17.9779C10.3556 18.1121 10.1932 18.3257 10.0353 18.45C9.7939 18.2314 9.4625 18.1879 8.97388 18.1879C8.74507 18.1879 8.44614 18.2279 8.28671 18.2493L8.26088 18.2521L8.23283 18.2564L8.24169 18.33C8.26088 18.4607 8.2845 18.6229 8.2845 18.8429L8.28154 19.0414L8.27859 19.2886C8.27859 19.8243 8.35462 20.1293 8.54873 20.36C8.48947 20.3796 8.42754 20.3907 8.36495 20.3929C8.021 20.3929 7.92209 20.2471 7.92209 19.29C7.92209 19.0971 7.91102 18.9164 7.90438 18.7971L7.89404 18.6186L7.85123 18.6507C7.34047 19.0279 6.81421 19.7007 6.78247 20.2043C6.62895 20.1086 6.46214 19.8929 6.46214 19.7279C6.46214 19.4529 6.88876 19.0407 7.38328 18.5621L7.66745 18.2879L7.70435 18.2521L7.61062 18.2307C7.45687 18.1872 7.29826 18.1618 7.13824 18.155C6.58466 18.155 6.23776 18.2564 6.02371 18.4814C5.94621 18.3743 5.882 18.1236 5.882 17.9764C5.882 17.8814 5.90119 17.8143 5.94104 17.7764C5.98902 17.7307 6.06431 17.7307 6.13 17.7307H6.14476C6.75516 17.7307 7.48514 17.8371 7.77004 17.8807L7.78702 17.885L7.79735 17.8707C7.84754 17.8071 9.01078 16.3064 9.31414 15.5107C9.39361 15.4789 9.47915 15.4638 9.56509 15.4664C9.7939 15.4664 9.85812 15.6164 9.92454 15.845C9.19604 16.7007 8.74212 17.3664 8.57752 17.8236M5.43323 4.36428C5.43323 3.24286 6.27614 2.35571 6.57285 2.10571C6.64371 2.12214 6.71531 2.13786 6.7869 2.15286C6.471 2.52571 5.91373 3.15 5.91373 3.97643C5.91373 5.61857 7.7265 7.04357 9.77914 7.04357C9.76537 7.19034 9.75847 7.33763 9.75847 7.485C9.75847 7.72714 9.77323 7.95214 9.79685 8.165C7.47628 8.15071 5.4325 6.32786 5.4325 4.365M21.0004 7.82143C22.0426 9.415 22.8567 9.38857 24.0879 9.38857C23.0693 8.63357 22.3961 7.66643 22.0751 7.17214L20.173 4.22714C19.9857 3.30424 19.4947 2.4648 18.7736 1.83429C19.0186 1.74429 19.2216 1.65 19.3441 1.56071C18.1019 1.56071 16.8715 0.95 16.1939 0.95C15.7585 0.95 15.4787 1.20214 15.4787 1.535C15.506 1.90643 15.9009 2.28286 16.6301 2.28286C16.7947 2.28286 17.0066 2.26214 17.2383 2.225C17.6332 2.75714 17.9513 3.23928 17.9513 3.92571C17.9513 5.215 16.3585 6.22 14.7502 6.22C14.6587 6.22 14.5731 6.21643 14.4823 6.21C14.3369 5.89071 13.8512 5.35428 13.8512 4.74357C13.8512 3.71928 14.5421 2.88214 14.5421 1.86786C14.5421 1.23643 14.2247 0.846428 14.1029 0.683571C14.3 0.506428 14.5162 0.288571 14.5664 0.139286C14.4513 0.187143 14.3155 0.192857 14.1162 0.192857C13.3464 0.193571 12.7182 0 12.1056 0C11.7558 0 11.6628 0.104286 11.6628 0.203571C11.6628 0.24 11.6672 0.277857 11.6775 0.295C11.5489 0.246494 11.4157 0.2106 11.2797 0.187857C11.0874 0.153463 10.8921 0.136722 10.6966 0.137857C9.95259 0.137857 9.68762 0.44 9.68762 0.698571C9.68762 0.917143 9.86623 1.31714 10.0685 1.62214C10.3585 1.48071 10.7069 1.385 10.8656 1.385C11.2612 1.385 11.6126 1.74929 11.7986 2.18C11.5329 2.21143 11.4819 2.22286 11.214 2.22286C10.4884 2.22286 9.9954 1.97143 9.89281 1.97143C9.88395 1.97143 9.86476 1.97643 9.86476 1.99286C9.86476 2.09071 10.0707 2.35 10.4752 2.49286C11.0095 2.68214 11.8089 2.76071 11.9418 2.78286C11.9418 2.805 11.8067 3.04929 11.6554 3.09714C11.6246 3.10692 11.5914 3.10767 11.5602 3.09929C11.0029 2.99357 10.8472 2.94786 10.1408 2.68786C10.1187 2.68071 10.1061 2.69286 10.1061 2.715C10.1061 2.98571 10.8302 3.58286 11.479 3.81214C10.9372 4.48143 10.2611 5.16643 9.94152 6.21071C9.85211 6.217 9.7625 6.22033 9.67285 6.22071C8.06454 6.22071 6.47173 5.21571 6.47173 3.92643C6.47173 3.23929 6.78985 2.75786 7.18473 2.22571C7.4165 2.26286 7.62759 2.28357 7.79293 2.28357C8.52216 2.28357 8.91704 1.90643 8.94583 1.53571C8.94583 1.20286 8.66535 0.950714 8.22988 0.950714C7.55231 0.950714 6.32264 1.56143 5.07821 1.56143C5.20147 1.65071 5.40519 1.745 5.64876 1.835C4.92812 2.46581 4.4375 3.30516 4.25007 4.22786L2.34873 7.17286C2.02766 7.66714 1.35231 8.63428 0.334473 9.38928C1.56488 9.38928 2.38121 9.41571 3.42266 7.82214L4.39769 6.31214C4.47002 6.50857 4.55859 6.69928 4.6634 6.88643L2.72369 9.88928C2.40114 10.3871 1.73169 11.3464 0.709425 12.1064C1.94057 12.1064 2.75616 12.1336 3.79762 10.5407L5.46719 7.95428C5.59266 8.08286 5.72331 8.20928 5.86133 8.32928L3.50607 11.9793C3.18278 12.4779 2.51702 13.435 1.49328 14.1936C2.72369 14.1936 3.53928 14.2221 4.58 12.6293L6.87695 9.07071C7.02826 9.16357 7.18252 9.25286 7.34343 9.33714L4.53866 13.6793C4.21612 14.1779 3.55035 15.1321 2.52662 15.8936C3.75702 15.8936 4.57262 15.9214 5.61407 14.3293L8.50076 9.85714C8.672 9.92 8.84471 9.98071 9.02038 10.0357L5.75874 15.0871C5.44062 15.5793 4.76009 16.5507 3.74669 17.3014C4.97635 17.3014 5.79343 17.3293 6.83414 15.7371L10.3106 10.3521C10.346 10.3586 10.3807 10.3629 10.4154 10.37C10.5099 10.6614 10.5763 10.9329 10.5763 11.2036C10.5763 12.8964 9.42854 14.39 8.052 15.5436C8.14057 15.5807 8.29335 15.5936 8.43507 15.5936C8.71997 15.5936 8.90302 15.5793 9.03219 15.5579C8.71259 16.2593 8.0269 17.1657 7.68147 17.6343C7.23124 17.5557 6.57433 17.4943 6.1455 17.4943C5.69526 17.4943 5.64507 17.7486 5.64507 17.9757C5.64507 18.3707 5.83624 18.6843 6.0584 18.86C6.14107 18.6579 6.30935 18.3886 7.13897 18.3886C7.15521 18.3886 7.18326 18.39 7.22238 18.3929C6.98028 18.6543 6.22078 19.2486 6.22078 19.7271C6.22078 20.0436 6.5795 20.52 7.05262 20.52C7.02531 20.4171 7.02826 20.3236 7.02826 20.2529C7.02826 19.865 7.38254 19.4107 7.68295 19.0943C7.67409 19.1886 7.67926 19.1786 7.67926 19.2893C7.67926 20.205 7.76488 20.6264 8.36569 20.6264C8.66092 20.6264 8.8639 20.47 8.93402 20.4229C8.54357 20.0757 8.52364 19.8014 8.52364 19.2879L8.52733 18.8429C8.53099 18.714 8.52433 18.585 8.5074 18.4571C8.72145 18.4286 8.80928 18.4286 8.97462 18.4286C8.97462 18.4286 9.82859 18.3629 10.0345 18.7929C10.267 18.5871 10.6029 18.2964 10.6029 17.9771C10.6029 17.765 10.4995 17.5257 10.0589 17.5257C9.89207 17.5257 9.36876 17.6243 8.92959 17.6243C9.04769 17.3714 9.57173 16.6293 10.0264 16.0907C10.0958 16.2993 10.2028 16.525 10.4405 16.71C10.4744 16.3636 10.684 15.2679 11.2435 14.6271C11.3085 15.06 11.3956 15.5043 11.3956 16.44C11.3956 18.7186 10.8302 20.4 9.62931 20.7214C9.78578 20.9843 10.1164 21.2214 10.4589 21.2214C10.8981 21.2214 11.138 20.74 11.3815 20.2857C11.5085 20.6207 11.8598 21.4414 12.2112 21.4414C12.5632 21.4414 12.9153 20.6207 13.0423 20.2857C13.2858 20.74 13.5257 21.2214 13.9649 21.2214C14.3081 21.2214 14.638 20.9843 14.7952 20.7214C13.5936 20.4 13.0275 18.7179 13.0275 16.44C13.0275 15.5043 13.1146 15.06 13.1795 14.6271C13.7405 15.2679 13.9509 16.3636 13.9826 16.71C14.221 16.525 14.3295 16.2993 14.3974 16.0907C14.8506 16.6293 15.3761 17.3714 15.4935 17.6243C15.055 17.6243 14.5303 17.5257 14.3642 17.5257C13.925 17.5257 13.8217 17.765 13.8217 17.9771C13.8217 18.2964 14.1583 18.5871 14.39 18.7929C14.5945 18.3629 15.4499 18.4286 15.4499 18.4286C15.6145 18.4286 15.7024 18.4286 15.9179 18.4571C15.9002 18.585 15.8933 18.714 15.8972 18.8429L15.9009 19.2879C15.9009 19.8021 15.8802 20.0757 15.4898 20.4229C15.5599 20.47 15.7629 20.6264 16.0581 20.6264C16.6597 20.6264 16.746 20.205 16.746 19.2893C16.746 19.1786 16.749 19.1886 16.7409 19.0943C17.0405 19.4107 17.3955 19.865 17.3955 20.2529C17.3955 20.3236 17.4 20.4171 17.3705 20.5193C17.8443 20.5193 18.2045 20.0436 18.2045 19.7264C18.2045 19.2486 17.4443 18.6543 17.2007 18.3929C17.2398 18.39 17.2686 18.3886 17.2841 18.3886C18.1152 18.3886 18.2827 18.6579 18.3661 18.86C18.4979 18.751 18.6032 18.6152 18.6746 18.4624C18.7461 18.3096 18.7819 18.1434 18.7795 17.9757C18.7795 17.7486 18.7278 17.4943 18.2783 17.4943C17.8495 17.4943 17.194 17.5557 16.7431 17.6343C16.3962 17.1657 15.7127 16.2593 15.3924 15.5571C15.5215 15.5786 15.7053 15.5936 15.9887 15.5936C16.1312 15.5936 16.284 15.5807 16.3725 15.5436C14.9953 14.39 13.8483 12.8957 13.8483 11.2036C13.8483 10.9329 13.9147 10.6614 14.0084 10.37C14.0424 10.3629 14.0785 10.3586 14.1132 10.3521L17.5897 15.7364C18.6304 17.3293 19.4475 17.3014 20.6771 17.3014C19.6637 16.5507 18.9832 15.5793 18.6651 15.0871L15.4027 10.0343C15.5798 9.98 15.7533 9.91928 15.9238 9.85571L18.8097 14.3279C19.8505 15.9207 20.6668 15.8929 21.8979 15.8929C20.8735 15.1314 20.2077 14.1771 19.8844 13.6786L17.0811 9.33643C17.2398 9.25214 17.3955 9.16214 17.5461 9.07L19.8438 12.6279C20.8853 14.2214 21.7001 14.1929 22.9313 14.1929C21.9068 13.4343 21.2425 12.4771 20.9177 11.9786L18.5625 8.32857C18.7005 8.20857 18.8326 8.08214 18.9559 7.95357L20.6269 10.54C21.6676 12.1329 22.4832 12.1057 23.7144 12.1057C22.6906 11.3457 22.0241 10.3864 21.7001 9.88857L19.7619 6.88571C19.8652 6.69857 19.9538 6.50714 20.0276 6.31143L21.0004 7.82143ZM33.8248 20.6271H30.265V0.941428H33.8248V20.6271Z" fill="#1A1A1A"/>
<path d="M33.825 40.3143H30.2651V20.6265H33.825V40.3143Z" fill="#D4323C"/>
<path d="M33.825 59.9997H30.2651V40.314H33.825V59.9997Z" fill="#FFC83B"/>
</g>
<defs>
<clipPath id="clip0_4135_8787">
<rect width="124" height="60" fill="white" transform="translate(0.333496)"/>
</clipPath>
</defs>
</svg>
