<svg width="76" height="58" viewBox="0 0 76 58" fill="none" xmlns="http://www.w3.org/2000/svg">
<path opacity="0.86" d="M49.5939 45.7487C62.4005 45.7487 72.7822 35.5075 72.7822 22.8744C72.7822 10.2412 62.4005 0 49.5939 0C36.7874 0 26.4056 10.2412 26.4056 22.8744C26.4056 35.5075 36.7874 45.7487 49.5939 45.7487Z" fill="#8595AD"/>
<path opacity="0.86" d="M26.4058 45.7487C39.2123 45.7487 49.594 35.5075 49.594 22.8744C49.594 10.2412 39.2123 0 26.4058 0C13.5992 0 3.21747 10.2412 3.21747 22.8744C3.21747 35.5075 13.5992 45.7487 26.4058 45.7487Z" fill="#0C2C5C"/>
<path d="M6.43318 57.6502C6.08954 57.8197 5.40227 57.9892 4.52128 57.9892C2.48041 57.9892 0.944519 56.7178 0.944519 54.3764C0.944519 52.0349 2.48041 50.6255 4.72547 50.6255C5.62787 50.6255 6.1971 50.8161 6.44412 50.9433L6.21852 51.6955C5.86394 51.526 5.35944 51.3988 4.75783 51.3988C3.0606 51.3988 1.93307 52.4688 1.93307 54.3444C1.93307 56.0929 2.95351 57.216 4.715 57.216C5.28423 57.216 5.86441 57.0995 6.24041 56.9192L6.43365 57.6502H6.43318Z" fill="#1A1A1A"/>
<path d="M13.5649 54.2388C13.5649 56.6971 12.0504 58 10.2028 58C8.35515 58 6.94824 56.538 6.94824 54.3764C6.94824 52.1091 8.37657 50.6255 10.3104 50.6255C12.2441 50.6255 13.5649 52.1195 13.5649 54.2383V54.2388ZM7.94726 54.3552C7.94726 55.8811 8.78493 57.2479 10.2566 57.2479C11.7282 57.2479 12.5768 55.9023 12.5768 54.2811C12.5768 52.8613 11.8248 51.3781 10.2675 51.3781C8.71021 51.3781 7.94726 52.7871 7.94726 54.3552Z" fill="#1A1A1A"/>
<path d="M20.8793 54.7473C20.8255 53.7515 20.7613 52.5543 20.7717 51.6641H20.7394C20.4923 52.5012 20.1915 53.3909 19.8265 54.3764L18.5481 57.8414H17.8394L16.6686 54.4403C16.3249 53.4336 16.0351 52.512 15.8309 51.6641H15.8095C15.7881 52.5543 15.7343 53.7515 15.67 54.8215L15.4768 57.8836H14.5853L15.0903 50.7424H16.2826L17.5177 54.1966C17.8185 55.076 18.0655 55.8601 18.2482 56.6019H18.2806C18.4634 55.8812 18.7209 55.0971 19.0431 54.1966L20.3319 50.7424H21.5242L21.9754 57.8836H21.0625L20.8798 54.7473H20.8793Z" fill="#1A1A1A"/>
<path d="M23.4141 50.827C23.8653 50.7528 24.456 50.6895 25.208 50.6895C26.1318 50.6895 26.8086 50.9012 27.2379 51.2829C27.6353 51.6219 27.8714 52.1412 27.8714 52.7769C27.8714 53.4126 27.6781 53.9319 27.3126 54.3028C26.8186 54.822 26.0128 55.0868 25.0999 55.0868C24.8205 55.0868 24.5631 55.076 24.3479 55.0235V57.8842H23.4136V50.8275L23.4141 50.827ZM24.3484 54.2704C24.5526 54.3234 24.8101 54.3446 25.1218 54.3446C26.2498 54.3446 26.9371 53.8042 26.9371 52.8187C26.9371 51.8332 26.2603 51.42 25.2294 51.42C24.821 51.42 24.5097 51.4519 24.3484 51.4942V54.2704Z" fill="#1A1A1A"/>
<path d="M29.3966 55.6375L28.6446 57.8836H27.678L30.1377 50.7424H31.2657L33.7359 57.8836H32.7369L31.9634 55.6375H29.3962H29.3966ZM31.7702 54.9168L31.0615 52.8613C30.9002 52.3951 30.7931 51.9711 30.6855 51.558H30.6641C30.5565 51.9819 30.4385 52.4162 30.299 52.8505L29.5903 54.9168H31.7707H31.7702Z" fill="#1A1A1A"/>
<path d="M34.7994 57.8836V50.7424H35.8199L38.1401 54.3553C38.677 55.1924 39.0963 55.9445 39.4399 56.6756L39.4614 56.6648C39.3752 55.7112 39.3538 54.8421 39.3538 53.7299V50.7419H40.2348V57.8831H39.2896L36.9912 54.2595C36.4862 53.4646 36.0031 52.6491 35.6381 51.8753L35.6057 51.8861C35.6595 52.7866 35.6809 53.6449 35.6809 54.8318V57.8831H34.7999L34.7994 57.8836Z" fill="#1A1A1A"/>
<path d="M43.4025 57.8836V54.8534L41.1146 50.7424H42.1779L43.1983 52.7134C43.4777 53.2538 43.6924 53.6881 43.918 54.1863H43.9394C44.1436 53.72 44.3906 53.2538 44.67 52.7134L45.7118 50.7424H46.7751L44.3478 54.8431V57.8841H43.4025V57.8836Z" fill="#1A1A1A"/>
<path d="M49.8792 50.7424H50.8135V57.1104H53.9067V57.8836H49.8787V50.7424H49.8792Z" fill="#1A1A1A"/>
<path d="M60.7169 54.2388C60.7169 56.6971 59.2025 58 57.3548 58C55.5072 58 54.1003 56.538 54.1003 54.3764C54.1003 52.1091 55.5286 50.6255 57.4624 50.6255C59.3962 50.6255 60.7169 52.1195 60.7169 54.2383V54.2388ZM55.0993 54.3552C55.0993 55.8811 55.937 57.2479 57.4086 57.2479C58.8802 57.2479 59.7289 55.9023 59.7289 54.2811C59.7289 52.8613 58.9769 51.3781 57.4196 51.3781C55.8622 51.3781 55.0993 52.7871 55.0993 54.3552Z" fill="#1A1A1A"/>
<path d="M67.4404 57.5658C67.0216 57.7141 66.1944 57.9578 65.2173 57.9578C64.1216 57.9578 63.2192 57.6822 62.5105 57.015C61.8875 56.4216 61.501 55.468 61.501 54.3557C61.512 52.2261 62.9941 50.6687 65.4214 50.6687C66.2591 50.6687 66.9145 50.849 67.2258 50.9974L67.0002 51.7495C66.6137 51.58 66.1301 51.4424 65.3995 51.4424C63.638 51.4424 62.4886 52.5233 62.4886 54.314C62.4886 56.1047 63.5947 57.1958 65.2815 57.1958C65.8936 57.1958 66.3124 57.1108 66.5275 57.0052V54.8755H65.0559V54.1337H67.4404V57.5667V57.5658Z" fill="#1A1A1A"/>
<path d="M75.0557 54.2388C75.0557 56.6971 73.5412 58 71.6936 58C69.8459 58 68.439 56.538 68.439 54.3764C68.439 52.1091 69.8673 50.6255 71.8011 50.6255C73.7349 50.6255 75.0557 52.1195 75.0557 54.2383V54.2388ZM69.438 54.3552C69.438 55.8811 70.2757 57.2479 71.7474 57.2479C73.219 57.2479 74.0676 55.9023 74.0676 54.2811C74.0676 52.8613 73.3156 51.3781 71.7583 51.3781C70.201 51.3781 69.438 52.7871 69.438 54.3552Z" fill="#1A1A1A"/>
</svg>
