<svg width="187.00000000000003" height="30" xmlns="http://www.w3.org/2000/svg" data-name="Ebene 1">

 <g>
  <title>Layer 1</title>
  <g id="svg_1">
   <path id="svg_2" fill="#004f79" stroke-width="0px" d="m37.32,12.67l2.15,-12.67l3.25,0l2.56,6.76l2.72,-6.76l3.29,0l1.9,12.67l-3.29,0l-0.93,-7.29l-3.06,7.29l-1.31,0l-2.93,-7.29l-1.08,7.29l-3.27,0z" class="cls-4"/>
   <path id="svg_3" fill="#004f79" stroke-width="0px" d="m62.47,2.8l-3.91,0l0,2.11l3.7,0l0,2.79l-3.7,0l0,2.18l3.91,0l0,2.79l-7.2,0l0,-12.67l7.2,0l0,2.79l0,0.01z" class="cls-4"/>
   <path id="svg_4" fill="#004f79" stroke-width="0px" d="m67.85,0l0,12.67l-3.29,0l0,-12.67l3.29,0z" class="cls-4"/>
   <path id="svg_5" fill="#004f79" stroke-width="0px" d="m70.51,12.67l0,-12.67l3.29,0l6.06,7.75l0,-7.75l3.29,0l0,12.67l-3.29,0l-6.06,-7.75l0,7.75l-3.29,0z" class="cls-4"/>
   <path id="svg_6" fill="#004f79" stroke-width="0px" d="m37.89,29.68l0,-12.67l4.9,0c0.91,0 1.99,0.13 2.77,0.99c0.44,0.47 0.78,1.25 0.78,2.38c0,0.55 -0.1,1.03 -0.36,1.56c-0.27,0.49 -0.55,0.78 -1.03,0.99c0.66,0.08 1.33,0.38 1.73,0.76c0.51,0.49 0.85,1.31 0.85,2.32c0,1.2 -0.46,2.01 -0.93,2.49c-0.68,0.7 -1.88,1.2 -3.44,1.2l-5.28,0l0.01,-0.02zm3.29,-7.67l0.61,0c0.34,0 0.91,-0.04 1.25,-0.4c0.21,-0.21 0.3,-0.55 0.3,-0.84c0,-0.32 -0.11,-0.65 -0.3,-0.85c-0.21,-0.21 -0.61,-0.38 -1.25,-0.38l-0.61,0l0,2.47zm0,5.11l0.74,0c0.91,0 1.67,-0.09 2.03,-0.51c0.15,-0.17 0.27,-0.46 0.27,-0.82c0,-0.4 -0.13,-0.72 -0.32,-0.91c-0.4,-0.4 -1.22,-0.42 -2.03,-0.42l-0.68,0l0,2.66l-0.01,0z" class="cls-4"/>
   <path id="svg_7" fill="#004f79" stroke-width="0px" d="m52.91,17l0,12.67l-3.29,0l0,-12.67l3.29,0z" class="cls-4"/>
   <path id="svg_8" fill="#004f79" stroke-width="0px" d="m58.86,17l0,9.88l3.95,0l0,2.79l-7.24,0l0,-12.67l3.29,0z" class="cls-4"/>
   <path id="svg_9" fill="#004f79" stroke-width="0px" d="m64.5,29.68l0,-12.67l4.31,0c1.27,0 3.4,0.17 5.03,1.75c1.48,1.42 1.77,3.25 1.77,4.62c0,1.67 -0.42,3.15 -1.65,4.39c-1.01,1.01 -2.7,1.92 -4.86,1.92l-4.6,0l0,-0.01zm3.29,-2.79l0.67,0c0.8,0 1.92,-0.08 2.77,-0.91c0.42,-0.4 0.97,-1.2 0.97,-2.6c0,-1.18 -0.36,-2.18 -0.99,-2.77c-0.78,-0.72 -1.8,-0.8 -2.62,-0.8l-0.8,0l0,7.09l0,-0.01z" class="cls-4"/>
   <path id="svg_10" fill="#004f79" stroke-width="0px" d="m81,17l0,7.5c0,0.53 0.02,1.35 0.65,1.96c0.38,0.36 0.99,0.61 1.56,0.61s1.16,-0.23 1.52,-0.55c0.76,-0.67 0.74,-1.6 0.74,-2.3l0,-7.22l3.29,0l0,7.28c0,1.33 -0.06,2.72 -1.42,4.1c-1.06,1.08 -2.39,1.58 -4.18,1.58c-2,0 -3.42,-0.68 -4.2,-1.52c-1.1,-1.2 -1.23,-2.81 -1.23,-4.16l0,-7.28l3.29,0l-0.02,0z" class="cls-4"/>
   <path id="svg_11" fill="#004f79" stroke-width="0px" d="m91.41,29.68l0,-12.67l3.29,0l6.06,7.75l0,-7.75l3.29,0l0,12.67l-3.29,0l-6.06,-7.75l0,7.75l-3.29,0z" class="cls-4"/>
   <path id="svg_12" fill="#004f79" stroke-width="0px" d="m112.78,22.49l6.54,0c0,2.51 -0.51,4.29 -2.03,5.7c-1.33,1.23 -2.85,1.6 -4.46,1.6c-2.28,0 -3.84,-0.84 -4.86,-1.88c-0.95,-0.95 -1.82,-2.49 -1.82,-4.58s0.8,-3.67 1.9,-4.75c1.04,-1.04 2.68,-1.86 4.92,-1.86c1.18,0 2.45,0.27 3.42,0.85c0.99,0.61 1.8,1.62 2.26,2.6l-3.13,1.29c-0.23,-0.59 -0.59,-1.01 -0.91,-1.27c-0.55,-0.46 -1.14,-0.63 -1.77,-0.63c-0.78,0 -1.58,0.28 -2.17,0.87c-0.74,0.74 -1.1,1.92 -1.1,2.91c0,1.16 0.42,2.11 1.01,2.74c0.61,0.65 1.35,0.97 2.32,0.97c0.57,0 1.23,-0.09 1.82,-0.59c0.3,-0.25 0.67,-0.7 0.78,-1.41l-2.7,0l0,-2.57l-0.02,0.01z" class="cls-4"/>
   <path id="svg_13" fill="#004f79" stroke-width="0px" d="m122.25,25.88c0.7,0.67 1.77,1.29 2.91,1.29c0.67,0 1.06,-0.21 1.27,-0.44c0.19,-0.19 0.32,-0.48 0.32,-0.8c0,-0.25 -0.09,-0.53 -0.36,-0.76c-0.32,-0.29 -0.82,-0.42 -1.63,-0.67l-0.85,-0.27c-0.53,-0.17 -1.31,-0.46 -1.82,-1.03c-0.65,-0.7 -0.72,-1.6 -0.72,-2.24c0,-1.56 0.61,-2.51 1.16,-3.06c0.65,-0.65 1.71,-1.2 3.25,-1.2c1.25,0 2.72,0.4 3.91,1.03l-1.31,2.56c-0.99,-0.78 -1.73,-0.85 -2.17,-0.85c-0.32,0 -0.76,0.08 -1.08,0.38c-0.19,0.19 -0.32,0.4 -0.32,0.68c0,0.23 0.04,0.4 0.17,0.57c0.1,0.11 0.32,0.34 1.1,0.57l1.01,0.3c0.8,0.25 1.63,0.53 2.3,1.25c0.65,0.68 0.82,1.39 0.82,2.26c0,1.16 -0.29,2.28 -1.2,3.19c-1.08,1.08 -2.39,1.29 -3.74,1.29c-0.8,0 -1.56,-0.08 -2.49,-0.42c-0.21,-0.08 -1.01,-0.38 -1.92,-1.01l1.41,-2.66l-0.02,0.04z" class="cls-4"/>
   <path id="svg_14" fill="#004f79" stroke-width="0px" d="m137.39,17c0.95,0 2.17,0.15 3.1,1.12c0.72,0.74 1.08,1.84 1.08,2.85c0,1.08 -0.38,2.03 -1.01,2.64c-0.49,0.48 -1.16,0.76 -1.75,0.87l3.97,5.19l-4.08,0l-3.15,-4.86l0,4.86l-3.29,0l0,-12.67l5.13,0zm-1.84,5.68l0.63,0c0.49,0 1.2,-0.13 1.6,-0.51c0.25,-0.25 0.42,-0.67 0.42,-1.06s-0.15,-0.8 -0.44,-1.06c-0.3,-0.3 -0.86,-0.49 -1.58,-0.49l-0.63,0l0,3.13l0,-0.01z" class="cls-4"/>
   <path id="svg_15" fill="#004f79" stroke-width="0px" d="m151.9,27.55l-4.6,0l-0.85,2.13l-3.48,0l4.86,-12.67l3.59,0l4.77,12.67l-3.51,0l-0.78,-2.13zm-0.87,-2.51l-1.42,-4.1l-1.39,4.1l2.81,0z" class="cls-4"/>
   <path id="svg_16" fill="#004f79" stroke-width="0px" d="m160.95,17l0,7.5c0,0.53 0.02,1.35 0.65,1.96c0.38,0.36 0.99,0.61 1.56,0.61s1.16,-0.23 1.52,-0.55c0.76,-0.67 0.74,-1.6 0.74,-2.3l0,-7.22l3.29,0l0,7.28c0,1.33 -0.06,2.72 -1.42,4.1c-1.06,1.08 -2.39,1.58 -4.18,1.58c-1.99,0 -3.42,-0.68 -4.2,-1.52c-1.1,-1.2 -1.23,-2.81 -1.23,-4.16l0,-7.28l3.29,0l-0.02,0z" class="cls-4"/>
   <path id="svg_17" fill="#004f79" stroke-width="0px" d="m170.79,29.68l2.15,-12.67l3.25,0l2.56,6.76l2.72,-6.76l3.29,0l1.9,12.67l-3.29,0l-0.93,-7.29l-3.06,7.29l-1.31,0l-2.93,-7.29l-1.08,7.29l-3.27,0z" class="cls-4"/>
  </g>
  <g id="svg_18">
   <polygon id="svg_19" fill="#aad1e6" stroke-width="0px" points="0,16.730000495910645 0,0 16.730000495910645,0 11.730000495910645,5.000000953674316 5.000000953674316,5.000000953674316 5.000000953674316,11.730000495910645 0,16.730000495910645 " class="cls-2"/>
   <polygon id="svg_20" fill="#004f79" stroke-width="0px" points="18.019999504089355,24.750000953674316 24.739998817443848,24.750000953674316 24.739998817443848,18.019999504089355 29.739998817443848,13.019999504089355 29.739998817443848,29.750000953674316 13.019999504089355,29.750000953674316 18.019999504089355,24.750000953674316 " class="cls-4"/>
   <polygon id="svg_21" fill="#0077b6" stroke-width="0px" points="5.000000953674316,17.380000114440918 5.000000953674316,24.750000953674316 12.359999656677246,24.750000953674316 7.359999656677246,29.750000953674316 0,29.750000953674316 0,22.379998207092285 5.000000953674316,17.380000114440918 " class="cls-3"/>
   <polygon id="svg_22" fill="#0077b6" stroke-width="0px" points="18.019999504089355,24.750000953674316 13.019999504089355,29.750000953674316 19.739998817443848,29.750000953674316 19.739998817443848,24.750000953674316 18.019999504089355,24.750000953674316 " class="cls-3"/>
   <polygon id="svg_23" fill="#0077b6" stroke-width="0px" points="5.000000953674316,10.000000953674316 0,10.000000953674316 0,16.730000495910645 5.000000953674316,11.730000495910645 5.000000953674316,10.000000953674316 " class="cls-3"/>
   <polygon id="svg_24" stroke-width="0px" fill="#cd5038" points="22.38000202178955,0 17.380000114440918,5.000000953674316 17.380000114440918,12.359999656677246 24.739998817443848,12.359999656677246 29.739998817443848,7.359999656677246 29.739998817443848,0 22.38000202178955,0 " class="cls-1"/>
  </g>
 </g>
</svg>