<svg width="40" height="40" viewBox="0 0 40 40" fill="none" xmlns="http://www.w3.org/2000/svg">
<circle cx="20" cy="20" r="20" fill="#D4323C"/>
<path d="M29.3036 13.7681C28.766 13.2076 28.1278 12.7629 27.4253 12.4595C26.7228 12.1562 25.9699 12 25.2095 12C24.4491 12 23.6961 12.1562 22.9936 12.4595C22.2912 12.7629 21.6529 13.2076 21.1153 13.7681L19.9997 14.9309L18.8841 13.7681C17.7983 12.6364 16.3256 12.0006 14.79 12.0006C13.2544 12.0006 11.7817 12.6364 10.6958 13.7681C9.61001 14.8999 9 16.4349 9 18.0354C9 19.6359 9.61001 21.1709 10.6958 22.3027L11.8115 23.4655L19.9997 32L28.188 23.4655L29.3036 22.3027C29.8414 21.7424 30.268 21.0771 30.5591 20.3449C30.8502 19.6128 31 18.828 31 18.0354C31 17.2429 30.8502 16.4581 30.5591 15.7259C30.268 14.9937 29.8414 14.3284 29.3036 13.7681Z" fill="white"/>
<path d="M29.3036 13.7681L28.7623 14.2873L28.7625 14.2875L29.3036 13.7681ZM25.2095 12V12.75V12ZM21.1153 13.7681L21.6565 14.2874L21.6567 14.2873L21.1153 13.7681ZM19.9997 14.9309L19.4585 15.4502L19.9997 16.0143L20.5409 15.4502L19.9997 14.9309ZM18.8841 13.7681L18.3429 14.2874V14.2874L18.8841 13.7681ZM10.6958 22.3027L11.237 21.7834V21.7834L10.6958 22.3027ZM11.8115 23.4655L11.2703 23.9847H11.2703L11.8115 23.4655ZM19.9997 32L19.4585 32.5192L19.9997 33.0833L20.5409 32.5192L19.9997 32ZM28.188 23.4655L28.7292 23.9847L28.188 23.4655ZM29.3036 22.3027L28.7625 21.7833L28.7624 21.7834L29.3036 22.3027ZM29.8449 13.249C29.2392 12.6174 28.5183 12.1146 27.7227 11.771L27.1279 13.1481C27.7372 13.4112 28.2929 13.7978 28.7623 14.2873L29.8449 13.249ZM27.7227 11.771C26.9269 11.4273 26.0728 11.25 25.2095 11.25V12.75C25.8669 12.75 26.5187 12.885 27.1279 13.1481L27.7227 11.771ZM25.2095 11.25C24.3461 11.25 23.492 11.4273 22.6963 11.771L23.291 13.1481C23.9002 12.885 24.552 12.75 25.2095 12.75V11.25ZM22.6963 11.771C21.9006 12.1146 21.1797 12.6174 20.574 13.249L21.6567 14.2873C22.1261 13.7978 22.6817 13.4112 23.291 13.1481L22.6963 11.771ZM20.5741 13.2489L19.4585 14.4117L20.5409 15.4502L21.6565 14.2874L20.5741 13.2489ZM20.5409 14.4117L19.4253 13.2489L18.3429 14.2874L19.4585 15.4502L20.5409 14.4117ZM19.4253 13.2489C18.2014 11.9733 16.5347 11.2506 14.79 11.2506V12.7506C16.1164 12.7506 17.3951 13.2995 18.3429 14.2874L19.4253 13.2489ZM14.79 11.2506C13.0452 11.2506 11.3785 11.9733 10.1546 13.2489L11.237 14.2874C12.1848 13.2995 13.4635 12.7506 14.79 12.7506V11.2506ZM10.1546 13.2489C8.9318 14.5235 8.25 16.2458 8.25 18.0354L9.75 18.0354C9.75 16.624 10.2882 15.2763 11.237 14.2874L10.1546 13.2489ZM8.25 18.0354C8.25 19.8251 8.9318 21.5474 10.1546 22.8219L11.237 21.7834C10.2882 20.7945 9.75 19.4468 9.75 18.0354L8.25 18.0354ZM10.1546 22.8219L11.2703 23.9847L12.3527 22.9462L11.237 21.7834L10.1546 22.8219ZM11.2703 23.9847L19.4585 32.5192L20.5409 31.4808L12.3527 22.9462L11.2703 23.9847ZM20.5409 32.5192L28.7292 23.9847L27.6468 22.9462L19.4585 31.4808L20.5409 32.5192ZM28.7292 23.9847L29.8448 22.8219L28.7624 21.7834L27.6468 22.9462L28.7292 23.9847ZM29.8447 22.822C30.4506 22.1908 30.9297 21.4429 31.2561 20.622L29.8622 20.0679C29.6064 20.7113 29.2322 21.294 28.7625 21.7833L29.8447 22.822ZM31.2561 20.622C31.5824 19.8011 31.75 18.9223 31.75 18.0354H30.25C30.25 18.7337 30.118 19.4244 29.8622 20.0679L31.2561 20.622ZM31.75 18.0354C31.75 17.1485 31.5824 16.2697 31.2561 15.4488L29.8622 16.0029C30.118 16.6464 30.25 17.3372 30.25 18.0354H31.75ZM31.2561 15.4488C30.9297 14.6279 30.4506 13.88 29.8447 13.2488L28.7625 14.2875C29.2322 14.7768 29.6064 15.3595 29.8622 16.0029L31.2561 15.4488Z" fill="white"/>
</svg>
